<svg width="42" height="42" viewBox="0 0 42 42" fill="none" xmlns="http://www.w3.org/2000/svg">
<path d="M13.125 0C12.4387 0 11.8125 0.643387 11.8125 1.3125V3.9375H13.125V6.5625H7.875C1.904 6.5625 1.31215 11.2119 1.3125 13.125V36.75C1.31268 37.7772 0 39.375 0 39.375V42H42V39.375C42 39.375 40.6873 37.7772 40.6875 36.75V13.125C40.6879 11.2119 40.096 6.5625 34.125 6.5625H28.875V3.9375H30.1875V1.3125C30.1875 0.643387 29.5613 0 28.875 0H13.125ZM19.4276 3.9375C19.5191 3.93689 19.6054 3.9375 19.6875 3.9375H22.3125C23.625 3.9375 26.25 3.9375 26.25 6.5625H15.75C15.75 4.10156 18.0579 3.94712 19.4276 3.9375ZM9.1875 11.8125H32.8125C34.4934 11.8125 35.4375 12.7732 35.4375 14.4375V35.4375C35.4375 36.1784 34.7609 36.75 34.125 36.75H7.875C7.23914 36.75 6.5625 36.1784 6.5625 35.4375V14.4375C6.5625 12.7732 7.50663 11.8125 9.1875 11.8125ZM11.8125 14.4375C11.8125 14.4375 9.1875 16.3487 9.1875 19.6875V28.875H14.4375V19.6875C14.4375 16.3487 11.8125 14.4375 11.8125 14.4375ZM21 14.4375C21 14.4375 18.375 16.3487 18.375 19.6875V28.875H23.625V19.6875C23.625 16.3487 21 14.4375 21 14.4375ZM30.1875 14.4375C30.1875 14.4375 27.5625 16.3487 27.5625 19.6875V28.875H32.8125V19.6875C32.8125 16.3487 30.1875 14.4375 30.1875 14.4375ZM9.1875 30.1875V32.8125H14.4375V30.1875H9.1875ZM18.375 30.1875V32.8125H23.625V30.1875H18.375ZM27.5625 30.1875V32.8125H32.8125V30.1875H27.5625Z" fill="white"/>
</svg>
