<svg width="36" height="36" viewBox="0 0 36 36" fill="none" xmlns="http://www.w3.org/2000/svg">
<path stroke="rgba(0,0,0,0.6)" stroke-width="0.8" stroke-linejoin="round" d="M26.9279 1.24414L21.5633 8.39696L32.2924 6.60877L26.9279 1.24414H26.9279ZM7.47 5.47653L6.23953 5.77255L8.63367 15.7209L9.58992 14.2861L7.47 5.47653ZM4.99437 6.01674C4.3721 8.93169 3.74808 12.3494 2.08329 13.8305C2.71793 13.9957 3.5891 13.7465 4.51976 12.1634C5.00829 13.2858 4.68239 13.3913 4.38216 14.184C5.5466 13.9429 6.15431 12.881 6.13104 11.5257L4.99437 6.01674ZM30.796 8.14123L25.3828 9.04334V11.2495H24.1172V9.25428L21.8672 9.62933V13.9917H27.6328V16.2417H29.7422V13.9917H30.8564L29.5362 10.031L30.796 8.14123ZM10.4636 15.2574L8.28113 18.5313L5.39234 19.4942L7.64234 23.9941L3.71679 25.3027L1.75781 27.2616V34.2417H8.12194L7.34323 31.9056L4.14893 29.776L4.851 28.723L8.4067 31.0935L9.45619 34.2417H19.8589L21.8168 30.326L20.8747 27.4998L14.625 25.4167L11.4501 26.4749L11.0499 25.2741L14.1465 24.242L16.1324 19.277L14.3629 17.5074H10.6172V15.2574H10.4636ZM15.2578 15.2574V16.6125L17.2498 18.6044L21.658 20.8085L21.092 21.9406L17.2071 19.9982L15.4619 24.3614L21.8753 26.4993L23.0531 30.0328L25.2701 32.2496L26.2661 34.2417H34.2422V23.6819L31.8182 25.298L29.533 26.4407L28.967 25.3085L31.1818 24.2012L34.2422 22.1609V15.2574H31.0078V17.5074H26.3672V15.2574H23.1328V17.5074H18.4922V15.2574H15.2578Z" fill="white"/>
</svg>
