<svg width="36" height="36" viewBox="0 0 36 36" fill="none" xmlns="http://www.w3.org/2000/svg">
<path stroke="rgba(0,0,0,0.6)" stroke-width="0.8" stroke-linejoin="round" d="M17.9965 1.90639L12.6984 7.56683L23.2945 7.64895L17.9965 1.90625H17.9963L17.9965 1.90639ZM1.75781 7.72721V12.5092L3.12272 14.3366H8.11912L9.49219 12.5085V7.72721H8.50781V8.85186H7.24219V7.72728H6.25781V8.85193H4.99219V7.72735H4.00781V8.852H2.74219V7.72742H1.75781V7.72721ZM26.5078 7.72721V12.5085L27.8808 14.3366H32.8772L34.2422 12.5092V7.72728H33.2578V8.85193H31.9922V7.72735H31.0078V8.852H29.7422V7.72742H28.7578V8.85207H27.4922V7.72749H26.5078V7.72721ZM14.1328 8.84356V18.344H21.8672V8.90389L14.1328 8.84356ZM18 10.2581C18.5625 10.2581 19.125 10.5394 19.125 11.1019V13.3519H16.875V11.1019C16.875 10.5394 17.4375 10.2581 18 10.2581ZM2.88281 15.6024V34.094H8.36719V15.6024H2.88281ZM27.6328 15.6024V34.094H33.1172V15.6024H27.6328ZM3.9375 17.0081C4.21875 17.0081 4.5 17.2894 4.5 17.8519V20.1019H3.375V17.8519C3.375 17.2894 3.65625 17.0081 3.9375 17.0081ZM32.0625 17.0081C32.3438 17.0081 32.625 17.2894 32.625 17.8519V20.1019H31.5V17.8519C31.5 17.2894 31.7812 17.0081 32.0625 17.0081ZM10.7578 19.6097V21.2269H9.63281V34.094H15.75V30.2269C15.75 28.5394 16.875 27.6956 18 27.6956C19.125 27.6956 20.25 28.5394 20.25 30.2269V34.094H26.3672V21.2269H25.2422V19.6097H24.2578V21.2269H22.9922V19.6097H22.0078V21.2269H20.7422V19.6097H19.7578V21.2269H18.4922V19.6097H17.5078V21.2269H16.2422V19.6097H15.2578V21.2269H13.9922V19.6097H13.0078V21.2269H11.7422V19.6097H10.7578ZM7.3125 22.6331C7.59375 22.6331 7.875 22.9144 7.875 23.4769V25.7269H6.75V23.4769C6.75 22.9144 7.03125 22.6331 7.3125 22.6331ZM12.375 22.6331C12.9375 22.6331 13.5 22.9144 13.5 23.4769V25.7269H11.25V23.4769C11.25 22.9144 11.8125 22.6331 12.375 22.6331ZM18 22.6331C18.5625 22.6331 19.125 22.9144 19.125 23.4769V25.7269H16.875V23.4769C16.875 22.9144 17.4375 22.6331 18 22.6331ZM23.625 22.6331C24.1875 22.6331 24.75 22.9144 24.75 23.4769V25.7269H22.5V23.4769C22.5 22.9144 23.0625 22.6331 23.625 22.6331ZM28.6875 22.6331C28.9688 22.6331 29.25 22.9144 29.25 23.4769V25.7269H28.125V23.4769C28.125 22.9144 28.4062 22.6331 28.6875 22.6331ZM3.9375 27.1331C4.21875 27.1331 4.5 27.4144 4.5 27.9769V30.2269H3.375V27.9769C3.375 27.4144 3.65625 27.1331 3.9375 27.1331ZM32.0625 27.1331C32.3438 27.1331 32.625 27.4144 32.625 27.9769V30.2269H31.5V27.9769C31.5 27.4144 31.7812 27.1331 32.0625 27.1331Z" fill="white"/>
</svg>
