<svg width="60" height="60" viewBox="0 0 60 60" fill="none" xmlns="http://www.w3.org/2000/svg">
<path d="M29.998 15.2246C20.8719 15.2246 13.4453 22.6512 13.4453 31.7773C13.4453 35.283 14.5421 38.5371 16.4091 41.2165L18.5909 39.7619C17.3018 37.922 16.4799 35.7959 16.1962 33.5673H18.2793V32.2489H16.0905C16.0853 32.0922 16.082 31.9352 16.082 31.7773C16.082 28.4537 17.2404 25.4074 19.1755 23.0177L20.4499 24.2921L21.3821 23.3599L20.054 22.0319C22.4347 19.6028 25.7013 18.0459 29.3389 17.8773V20.0174H30.6572V17.8774C34.2948 18.046 37.5614 19.603 39.9421 22.0321L38.614 23.3601L39.5461 24.2923L40.8205 23.0179C42.7556 25.4078 43.9141 28.4539 43.9141 31.7776C43.9141 31.9354 43.9108 32.0926 43.9056 32.2491H41.7168V33.5675H43.7998C43.5162 35.796 42.6944 37.9221 41.4052 39.7619L43.5871 41.2165C45.454 38.5372 46.5508 35.2832 46.5508 31.7775C46.5508 22.6514 39.1242 15.2248 29.998 15.2248V15.2246ZM31.1575 20.0754C32.479 20.8044 33.6482 21.8333 34.5894 23.0957C35.5307 24.3581 36.2231 25.8259 36.6219 27.4042L40.2815 26.1175C40.181 25.9436 40.076 25.7724 39.9666 25.6039L39.5905 25.9813L37.3663 23.7628L36.9444 23.342L37.5194 22.7653C35.7171 21.2498 33.5001 20.3125 31.1574 20.0754L31.1575 20.0754ZM42.5942 26.6558L29.7525 31.0943C28.8632 31.2162 28.167 31.9879 28.167 32.9082C28.167 33.9116 28.9946 34.7393 29.998 34.7393C30.4939 34.7393 30.9465 34.5368 31.2778 34.2113L42.5942 26.6558ZM41.3848 29.0231L36.938 32.0056C36.7628 33.5698 36.3054 35.0787 35.593 36.4419C34.8807 37.8052 33.9282 38.9947 32.7925 39.9394H38.3631C39.7398 38.536 40.7413 36.8089 41.2754 34.917H40.4336V31.0707H41.6803C41.6424 30.3808 41.5435 29.6956 41.3848 29.0231ZM20.623 42.1367V44.7734H39.373V42.1367H20.623Z" fill="white"/>
<path d="M21.4258 1.26642L32.6256 12.4663V5.09137C44.4255 6.26635 53.8254 15.6662 55.0003 27.4661H60.0003C58.3503 7.54134 38.7256 -3.98351 21.4258 1.26642Z" fill="white"/>
<path d="M27.3746 54.8903C15.5748 53.7153 6.17492 44.3155 4.99993 32.5156H0C1.64998 52.4404 21.2747 63.9652 38.5745 58.7153L27.3746 47.5154V54.8903Z" fill="white"/>
</svg>
