<svg width="60" height="60" viewBox="0 0 60 60" fill="none" xmlns="http://www.w3.org/2000/svg">
<path d="M38.53 13.5371C32.8428 13.5371 29.9988 18.3513 29.9988 18.3513C29.9988 18.3513 27.1548 13.5378 21.4675 13.5378C18.7473 13.5378 13.5742 16.0076 13.5742 22.7026C13.5742 34.5122 29.9988 46.4646 29.9988 46.4646C29.9988 46.4646 46.4233 34.5122 46.4233 22.7026C46.4233 16.0068 41.2502 13.5378 38.53 13.5371ZM27.8739 21.9614H32.3195V27.778H38.1231V32.2238H32.3195V38.0746H27.8739V32.2238H22.0098V27.778H27.8739V21.9614Z" fill="white"/>
<path d="M21.4258 1.26642L32.6256 12.4663V5.09137C44.4255 6.26635 53.8254 15.6662 55.0003 27.4661H60.0003C58.3503 7.54134 38.7256 -3.98351 21.4258 1.26642Z" fill="white"/>
<path d="M27.3746 54.8903C15.5748 53.7153 6.17492 44.3155 4.99993 32.5156H0C1.64998 52.4404 21.2747 63.9652 38.5745 58.7153L27.3746 47.5154V54.8903Z" fill="white"/>
</svg>
