<svg width="36" height="36" viewBox="0 0 36 36" fill="none" xmlns="http://www.w3.org/2000/svg">
<path d="M14.9972 1.36914L2.08765 8.46227H4.71558L14.1015 3.30512L12.9892 8.46227H14.2837L15.0982 4.68641L16.0606 8.4622H17.3666L15.9993 3.09777L30.2685 8.46227H33.8648L14.9972 1.36914ZM1.75781 9.72789V11.8373H34.2422V9.72789H1.75781ZM4.00781 13.1029V15.2123H8.36719V13.1029H4.00781ZM14.1328 13.1029V16.3373H16.2422V13.1029H14.1328ZM17.5078 13.1029V16.3373H18.8629L19.6172 15.583V13.1029H17.5078ZM30.8672 13.1029V23.0667C31.0688 22.9874 31.2834 22.9467 31.5 22.9466C31.7226 22.9466 31.9359 22.9895 32.1328 23.0667V13.1029H30.8672ZM14.1328 17.6029V34.6185H16.2422V17.6029H14.1328ZM31.5 24.2123C31.2206 24.2123 31.0078 24.4251 31.0078 24.7045C31.0078 24.9838 31.2206 25.1966 31.5 25.1966C31.7794 25.1966 31.9922 24.9838 31.9922 24.7045C31.9922 24.4251 31.7794 24.2123 31.5 24.2123ZM30.0661 25.7145L28.9115 27.4466H30.4324L31.1174 26.4192C30.6873 26.3219 30.3147 26.0648 30.0661 25.7145ZM32.9339 25.7145C32.6853 26.0647 32.3127 26.3219 31.8826 26.4192L32.5676 27.4466H34.0885L32.9339 25.7145ZM28.7578 28.7123V30.8216H34.2422V28.7123H28.7578ZM12.8672 30.4349L8.62031 33.6201L9.37969 34.6326L12.8672 32.017V30.4349ZM17.5078 30.4349V32.017L20.9953 34.6326L21.7547 33.6201L17.5078 30.4349Z" fill="white"/>
</svg>
