<svg width="37" height="45" viewBox="0 0 37 45" fill="none" xmlns="http://www.w3.org/2000/svg">
<path d="M35.8233 7.6276C36.3561 7.77286 36.6701 8.32253 36.5271 8.85598C33.4711 20.2538 31.2672 31.8634 29.9332 43.5882C29.8708 44.137 29.3772 44.5333 28.8282 44.4732L14.9111 42.9492L0.994003 41.4243C0.445022 41.3642 0.0485463 40.8704 0.11072 40.3216C1.61611 27.0348 4.11441 13.8793 7.58349 0.965279C7.72677 0.431907 8.27667 0.117759 8.80951 0.263022L35.8233 7.6276ZM20.0859 13.4268C14.6676 12.3586 9.40924 15.8854 8.34082 21.3037C7.27259 26.7223 10.7992 31.9816 16.2178 33.0498C21.6361 34.1178 26.8945 30.5911 27.9629 25.1729C29.0311 19.7543 25.5045 14.495 20.0859 13.4268ZM9.8125 21.5947C10.7205 16.989 15.1901 13.9904 19.7959 14.8984C24.4017 15.8064 27.3992 20.277 26.4912 24.8828C25.583 29.4883 21.1134 32.486 16.5078 31.5781C11.9022 30.6702 8.90476 26.2004 9.8125 21.5947ZM16.4218 19.6601C16.3463 20.0437 16.5959 20.4159 16.9794 20.4917C17.363 20.5675 17.6126 20.9398 17.537 21.3234L16.9465 24.3197C16.8639 24.7391 16.4568 25.012 16.0375 24.9292C15.6182 24.8464 15.2112 25.1192 15.1285 25.5385L15.0913 25.727C14.988 26.2504 15.3287 26.7585 15.8521 26.8617L18.9839 27.4792C19.5074 27.5824 20.0154 27.2418 20.1186 26.7184L20.1709 26.4537C20.2453 26.0764 19.9998 25.7102 19.6225 25.6357C19.2452 25.5613 18.9997 25.1952 19.0741 24.8179L19.997 20.1364C20.1038 19.5945 19.7512 19.0687 19.2093 18.9619L17.6064 18.6459C17.0828 18.5427 16.5746 18.8836 16.4716 19.4073L16.4218 19.6601Z" fill="#DAFAF5" fill-opacity="0.8"/>
</svg>
