<svg width="31" height="43" viewBox="0 0 31 43" fill="none" xmlns="http://www.w3.org/2000/svg">
<path d="M15.8506 1.22949L29.8042 2.37702C30.3546 2.42229 30.7639 2.90517 30.7209 3.45577C29.8035 15.2203 29.7618 27.0367 30.597 38.8074C30.6361 39.3582 30.2235 39.8383 29.6728 39.8797L1.75111 41.9797C1.20037 42.0211 0.720141 41.6082 0.680787 41.0573C-0.272033 27.7193 -0.224691 14.3279 0.821284 0.996828C0.864485 0.446224 1.34759 0.0366997 1.89803 0.0819702L15.8506 1.22949ZM15 11.96C9.47723 11.9601 5 16.4372 5 21.96C5 27.4828 9.47723 31.9599 15 31.96C20.5228 31.96 25 27.4828 25 21.96C25 16.4371 20.5228 11.96 15 11.96ZM15 13.46C19.6944 13.46 23.5 17.2655 23.5 21.96C23.5 26.6544 19.6944 30.46 15 30.46C10.3057 30.4599 6.5 26.6543 6.5 21.96C6.5 17.2656 10.3057 13.4601 15 13.46ZM12.0293 18.5259C12.0293 19.0596 12.4619 19.4922 12.9956 19.4922H14.9688C15.1047 19.4922 15.2288 19.5202 15.3408 19.5762C15.4528 19.6242 15.5415 19.6997 15.6055 19.8037C15.6694 19.8997 15.7012 20.0201 15.7012 20.1641C15.7012 20.3 15.6695 20.4204 15.6055 20.5244C15.5415 20.6204 15.4528 20.696 15.3408 20.752C15.2289 20.7999 15.1047 20.8242 14.9688 20.8242H13.3491C12.8521 20.8242 12.4492 21.2271 12.4492 21.7241C12.4492 22.2211 12.8521 22.624 13.3491 22.624H14.9209C15.0729 22.624 15.2054 22.6557 15.3174 22.7197C15.4372 22.7757 15.5288 22.8561 15.5928 22.96C15.6648 23.064 15.7012 23.188 15.7012 23.332C15.7012 23.476 15.6648 23.6038 15.5928 23.7158C15.5288 23.8197 15.4372 23.9038 15.3174 23.9678C15.2054 24.0238 15.0729 24.0518 14.9209 24.0518H12.9834C12.4565 24.0518 12.0293 24.4789 12.0293 25.0059C12.0293 25.5328 12.4565 25.96 12.9834 25.96H15.3525C15.8484 25.96 16.2926 25.8517 16.6846 25.6357C17.0765 25.4118 17.3854 25.1123 17.6094 24.7363C17.8414 24.3603 17.957 23.9359 17.957 23.4639C17.957 23.2159 17.9206 22.9836 17.8486 22.7676C17.7766 22.5518 17.673 22.3518 17.5371 22.168C17.3284 21.8734 17.3188 21.4435 17.5224 21.1453C17.5876 21.0497 17.6446 20.9505 17.6934 20.8477C17.8372 20.5359 17.9091 20.2201 17.9092 19.9004C17.9092 19.4765 17.8009 19.0883 17.585 18.7363C17.369 18.3844 17.0732 18.0998 16.6973 17.8838C16.3213 17.6678 15.8847 17.5596 15.3887 17.5596H12.9956C12.4619 17.5596 12.0293 17.9922 12.0293 18.5259Z" fill="#DAFAF5" fill-opacity="0.8"/>
</svg>
