<svg preserveAspectRatio="xMidYMid meet" width="100%" height="100%" overflow="visible" style="display: block;" viewBox="0 0 19.1738 112.684" fill="none" xmlns="http://www.w3.org/2000/svg">
<g id="Group 319">
<path id="Subtract" d="M19.1738 3.1543C9.6847 37.984 9.60806 74.708 18.9512 109.577L13.1553 111.13L7.36035 112.684C-2.53242 75.7633 -2.45161 36.8786 7.5957 0L19.1738 3.1543ZM12.4492 102.927C11.9796 102.396 11.46 102.162 10.9971 102.274C10.5343 102.387 10.185 102.833 10.0254 103.518C10.0248 103.52 10.024 103.522 10.0234 103.524L8.8877 107.503L8.88574 107.509C8.66141 108.181 8.72075 108.748 9.0498 109.093C9.3786 109.437 9.93844 109.518 10.6104 109.314L14.6289 108.312C15.3179 108.177 15.7758 107.843 15.9043 107.384C16.0326 106.925 15.8181 106.397 15.3047 105.909L15.2998 105.904L12.4531 102.931C12.4519 102.929 12.4505 102.928 12.4492 102.927ZM11.0684 102.56C11.2746 102.51 11.4957 102.565 11.7158 102.694C11.9347 102.822 12.1618 103.025 12.4053 103.301C12.4065 103.302 12.4079 103.303 12.4092 103.305L14.918 105.926L14.9229 105.931C15.1953 106.189 15.3917 106.427 15.5107 106.653C15.6304 106.881 15.6725 107.106 15.6123 107.311C15.552 107.515 15.395 107.68 15.1758 107.805C14.9581 107.929 14.6737 108.021 14.3223 108.09L10.7773 108.974C10.4054 109.087 10.0976 109.138 9.8418 109.124C9.58438 109.11 9.37119 109.025 9.2334 108.862C9.09562 108.7 9.04381 108.478 9.05078 108.225C9.05775 107.973 9.12208 107.681 9.2334 107.349L9.23437 107.343L10.2363 103.837C10.2369 103.834 10.2377 103.832 10.2383 103.829C10.3214 103.472 10.4249 103.187 10.5576 102.974C10.6913 102.758 10.8622 102.609 11.0684 102.56ZM12.4404 106.825L11.8057 106.983L10.5547 103.766C10.5427 103.811 10.5311 103.857 10.5205 103.902V103.906L10.5195 103.91L9.51367 107.429L9.5127 107.433L9.51172 107.436C9.40484 107.754 9.34858 108.023 9.34277 108.232C9.33699 108.441 9.37961 108.582 9.45605 108.673C9.53268 108.763 9.65367 108.822 9.8584 108.833C10.063 108.844 10.3443 108.801 10.6992 108.692L10.7031 108.691L14.2549 107.806L14.2588 107.805C14.5944 107.739 14.8541 107.652 15.0312 107.551C15.2083 107.45 15.2983 107.342 15.332 107.228C15.3656 107.113 15.3487 106.973 15.252 106.789C15.1792 106.651 15.0616 106.492 14.8975 106.317L14.7148 106.135L14.7119 106.133L12.1943 103.503L12.1924 103.501L12.1904 103.498C12.1344 103.434 12.0798 103.376 12.0264 103.321L12.4404 106.825ZM12.7061 107.823L12.04 107.989L11.874 107.323L12.54 107.157L12.7061 107.823ZM7.01465 77.8008C6.54182 77.8564 6.14221 78.2563 5.90039 78.916C5.89951 78.9184 5.89735 78.9204 5.89648 78.9229L4.28516 82.7334L4.28223 82.7393C3.97774 83.3792 3.96655 83.9486 4.25098 84.3311C4.5353 84.7133 5.08176 84.861 5.77344 84.7412L9.88477 84.2363C10.5851 84.1854 11.0792 83.9094 11.2627 83.4697C11.446 83.0299 11.2977 82.4807 10.8477 81.9336L10.8437 81.9277L8.38086 78.6299C8.3798 78.6283 8.37901 78.6265 8.37793 78.625C7.97639 78.0405 7.48796 77.7453 7.01465 77.8008ZM7.13086 78.0889C7.31552 78.0905 7.50034 78.1693 7.67773 78.3047C7.87933 78.4586 8.08001 78.6879 8.28809 78.9912C8.28922 78.9929 8.29085 78.9944 8.29199 78.9961L10.4629 81.9023L10.4639 81.9043L10.4668 81.9072C10.7057 82.1969 10.8703 82.4571 10.9609 82.6963C11.052 82.9371 11.0671 83.1658 10.9824 83.3613C10.8977 83.5569 10.7212 83.7014 10.4883 83.7988C10.2571 83.8954 9.96359 83.9519 9.60645 83.9775L5.98047 84.4229C5.5977 84.4896 5.28635 84.5027 5.03418 84.458C4.7803 84.413 4.57887 84.3023 4.46191 84.124C4.34512 83.9458 4.32055 83.7194 4.3584 83.4688C4.39603 83.2196 4.49454 82.9384 4.64551 82.6221L4.64844 82.6162L6.07031 79.2588C6.07125 79.2562 6.07231 79.2536 6.07324 79.251C6.19926 78.9065 6.3364 78.6374 6.49414 78.4414C6.65315 78.2439 6.84098 78.1166 7.05176 78.0928L7.13086 78.0889ZM7.89355 82.4941L7.24414 82.5732L6.39453 79.2266C6.37711 79.2702 6.3608 79.3143 6.34473 79.3584L6.34375 79.3623L6.3418 79.3652L4.91504 82.7363L4.91406 82.7393L4.91211 82.7422C4.76724 83.0448 4.6787 83.3058 4.64746 83.5127C4.61624 83.7195 4.64109 83.8648 4.70605 83.9639C4.77109 84.063 4.88406 84.1352 5.08594 84.1709C5.28773 84.2066 5.57199 84.1991 5.9375 84.1348L5.94141 84.1338L9.5752 83.6875H9.5791C9.91995 83.6636 10.1878 83.6079 10.376 83.5293C10.5641 83.4506 10.6674 83.3545 10.7148 83.2451C10.7621 83.1358 10.7621 82.9945 10.6885 82.7998C10.6147 82.6049 10.4659 82.3644 10.2373 82.0879L10.2354 82.0859L10.2324 82.082L8.05371 79.166L8.05176 79.1631L8.05078 79.1602C8.00288 79.0901 7.95559 79.0253 7.90918 78.9648L7.89355 82.4941ZM8.03516 83.5166L7.35449 83.5996L7.27051 82.9189L7.95117 82.835L8.03516 83.5166ZM5.98437 53.3213C5.50822 53.3187 5.0617 53.6667 4.74121 54.292C4.74004 54.2943 4.73846 54.2965 4.7373 54.2988L2.67285 57.8848L2.66992 57.8896C2.28961 58.4878 2.2096 59.0515 2.44531 59.4658C2.68094 59.8799 3.20511 60.0932 3.90625 60.0586H8.04785C8.74921 60.0934 9.27406 59.8799 9.50977 59.4658C9.74508 59.0518 9.66486 58.4883 9.28516 57.8906L9.28125 57.8848L7.23926 54.3105C7.23841 54.3089 7.2372 54.3073 7.23633 54.3057C6.90912 53.6768 6.46076 53.3241 5.98437 53.3213ZM5.98535 53.6162C6.1973 53.6184 6.3988 53.7241 6.58105 53.9023C6.76224 54.0796 6.93312 54.3311 7.10254 54.6572C7.10352 54.6591 7.10449 54.6612 7.10547 54.6631L8.90625 57.8125L8.90723 57.8154L8.90918 57.8184C9.11105 58.1351 9.24395 58.4136 9.30469 58.6621C9.36562 58.912 9.35199 59.1406 9.24414 59.3242C9.13625 59.5079 8.94413 59.6299 8.70117 59.6982C8.45986 59.7661 8.16152 59.7866 7.80371 59.7686H4.15039C3.76249 59.7882 3.45186 59.7634 3.20703 59.6885C2.96047 59.6129 2.77406 59.4774 2.67969 59.2861C2.58557 59.0951 2.58826 58.868 2.65625 58.624C2.72395 58.3813 2.85648 58.114 3.04492 57.8184L3.04883 57.8125L4.86816 54.6533C4.86941 54.6509 4.87082 54.6489 4.87207 54.6465C5.03922 54.3196 5.20813 54.0689 5.38867 53.8936C5.57058 53.7169 5.77323 53.6141 5.98535 53.6162ZM6.28418 58.0869H5.62988L5.19434 54.6611C5.17172 54.7023 5.15024 54.7443 5.12891 54.7861L5.125 54.792L3.29785 57.9639L3.29687 57.9668L3.29492 57.9697C3.11425 58.2525 2.99372 58.5006 2.9375 58.7021C2.88129 58.9037 2.88895 59.0509 2.94141 59.1572C2.99387 59.2635 3.09695 59.3491 3.29297 59.4092C3.48892 59.4692 3.77199 59.4958 4.14258 59.4766L4.14648 59.4756H7.80762L7.81152 59.4766C8.15291 59.4943 8.42571 59.4721 8.62207 59.417C8.81817 59.3619 8.93174 59.2794 8.99219 59.1768C9.05253 59.074 9.06983 58.9336 9.02051 58.7314C8.97105 58.529 8.85323 58.2719 8.66016 57.9697L8.6582 57.9668L8.65625 57.9629L6.84863 54.8027L6.84766 54.7998L6.8457 54.7969C6.80675 54.7217 6.76814 54.6515 6.72949 54.5859L6.28418 58.0869ZM6.2998 59.1182H5.61426V58.4326H6.2998V59.1182ZM7.86328 29.8018C7.3909 29.7411 6.90509 30.0324 6.51074 30.6143C6.50935 30.6162 6.5082 30.6181 6.50684 30.6201L4.02051 33.9277L4.0166 33.9326C3.5663 34.48 3.418 35.0298 3.60156 35.4697C3.785 35.9093 4.2794 36.1843 4.97949 36.2354L9.09082 36.7402C9.78243 36.8601 10.3289 36.7131 10.6133 36.3311C10.8978 35.9487 10.8864 35.3792 10.582 34.7393L10.5801 34.7324L8.98828 30.9365C8.98758 30.9345 8.98609 30.9326 8.98535 30.9307C8.73719 30.2667 8.33575 29.8625 7.86328 29.8018ZM7.82812 30.0938C8.03841 30.1216 8.22547 30.252 8.38477 30.4512C8.5431 30.6492 8.68206 30.9201 8.81055 31.2646C8.81128 31.2666 8.81177 31.2685 8.8125 31.2705L10.2158 34.6152L10.2168 34.6182L10.2187 34.6221C10.3804 34.9609 10.4778 35.2528 10.5078 35.5068C10.538 35.7626 10.4967 35.988 10.3672 36.1572C10.2377 36.3264 10.0318 36.4237 9.78223 36.4619C9.53453 36.4998 9.23656 36.4834 8.88379 36.4219L5.25781 35.9775C4.87011 35.9497 4.56402 35.8866 4.33008 35.7822C4.09492 35.6772 3.92683 35.5214 3.85645 35.3203C3.78609 35.1191 3.81668 34.8934 3.91406 34.6592C4.01082 34.4266 4.17449 34.1776 4.39746 33.9072L4.40234 33.9014L6.59277 30.9883C6.59431 30.986 6.59612 30.9837 6.59766 30.9814C6.8034 30.6774 7.00158 30.4489 7.20215 30.2969C7.40423 30.1437 7.61783 30.0658 7.82812 30.0938ZM6.83496 31.1514L6.83398 31.1543L6.83105 31.1572L4.63086 34.082L4.62695 34.0879C4.41321 34.3465 4.26395 34.5783 4.18359 34.7715C4.10329 34.9646 4.09272 35.1118 4.13184 35.2236C4.17099 35.3355 4.26304 35.4331 4.4502 35.5166C4.63736 35.6 4.9151 35.6605 5.28516 35.6865H5.28906L8.92285 36.1328L8.92676 36.1338C9.26325 36.193 9.5367 36.2046 9.73828 36.1738C9.93989 36.143 10.0633 36.0742 10.1357 35.9795C10.208 35.8848 10.2422 35.7477 10.2178 35.541C10.1933 35.3341 10.107 35.0647 9.95215 34.7412L9.95117 34.7383L9.94922 34.7354L8.54102 31.3779L8.53906 31.3721C8.50948 31.2924 8.47967 31.2174 8.44922 31.1475L7.58008 34.5684L6.93066 34.4883L6.91602 31.0352C6.88855 31.0733 6.86124 31.1124 6.83496 31.1514ZM7.55371 34.9131L7.46973 35.5947L6.78906 35.5107L6.87305 34.8301L7.55371 34.9131ZM12.6699 4.26758C12.2084 4.14983 11.6908 4.38071 11.2285 4.91016C11.2269 4.91186 11.2252 4.91325 11.2236 4.91504L8.35254 7.89453L8.34863 7.89844C7.83493 8.3868 7.62056 8.91503 7.74902 9.37402C7.87749 9.83276 8.33474 10.1667 9.02344 10.3027L13.042 11.3047C13.7141 11.5081 14.2746 11.4278 14.6035 11.083C14.9324 10.7382 14.9907 10.1722 14.7666 9.5L14.7646 9.49316L13.6475 5.53125C13.647 5.52931 13.647 5.52734 13.6465 5.52539C13.4811 4.83595 13.1315 4.38548 12.6699 4.26758ZM11.9531 4.67969C12.1724 4.55227 12.3943 4.50038 12.5996 4.55371C12.8048 4.60706 12.9746 4.7595 13.1084 4.97656C13.2413 5.19233 13.3462 5.47767 13.4316 5.83496C13.4321 5.83694 13.4331 5.83889 13.4336 5.84082L14.418 9.33301L14.4189 9.33496L14.4199 9.33887C14.5392 9.69507 14.6008 9.99708 14.5996 10.2529C14.5984 10.5104 14.53 10.7297 14.3809 10.8818C14.2317 11.0339 14.015 11.1048 13.7627 11.1123C13.5123 11.1197 13.2185 11.0678 12.876 10.9639L9.33105 10.0801C8.94963 10.0052 8.65405 9.90554 8.43457 9.77344C8.2137 9.64044 8.06584 9.46517 8.02051 9.25684C7.97519 9.04848 8.03296 8.82803 8.1582 8.60742C8.28255 8.38849 8.47546 8.16192 8.72949 7.9209L8.73437 7.91602L11.2646 5.29004C11.2664 5.28808 11.2688 5.28716 11.2705 5.28516C11.5116 5.00868 11.7357 4.8062 11.9531 4.67969ZM11.4854 5.48145L11.4834 5.48438L11.4805 5.4873L8.94043 8.12305L8.93555 8.12793C8.69192 8.3585 8.51542 8.57004 8.41211 8.75195C8.30885 8.93384 8.28053 9.07853 8.30566 9.19434C8.33084 9.31006 8.40964 9.41782 8.58496 9.52344C8.76053 9.62911 9.0292 9.72392 9.39355 9.79492L9.39746 9.7959L12.9502 10.6807L12.9541 10.6826C13.2809 10.7824 13.5511 10.8273 13.7549 10.8213C13.9586 10.8152 14.0884 10.7618 14.1719 10.6768C14.2553 10.5917 14.3066 10.4601 14.3076 10.252C14.3086 10.0436 14.2558 9.76572 14.1416 9.42578L14.1396 9.42188L14.1387 9.41895L13.1504 5.91504L13.1494 5.91211V5.90918C13.1298 5.82666 13.1086 5.74883 13.0869 5.67578L11.8076 8.96387L11.1729 8.80566L11.5791 5.37695C11.5473 5.4113 11.5161 5.44614 11.4854 5.48145ZM11.7393 9.30371L11.5732 9.96973L10.9082 9.80371L11.0742 9.1377L11.7393 9.30371Z" fill="var(--fill-0, #FF6565)" fill-opacity="0.8"/>
</g>
</svg>

