<svg width="37" height="45" viewBox="0 0 37 45" fill="none" xmlns="http://www.w3.org/2000/svg">
<path d="M28.8414 0.104488C29.3907 0.0467801 29.8825 0.445272 29.9426 0.99427C31.2253 12.7246 33.3786 24.3433 36.3848 35.7543C36.5255 36.2883 36.2092 36.8366 35.6757 36.9796L22.1533 40.6035L8.62996 44.2266C8.09651 44.3695 7.548 44.0529 7.40705 43.519C3.99435 30.5898 1.55376 17.4234 0.106383 4.13005C0.0466048 3.58102 0.445245 3.08893 0.994491 3.03119L14.918 1.56738L28.8414 0.104488ZM27.0859 18.9336C26.02 13.5146 20.7628 9.98584 15.3438 11.0518C9.92519 12.1179 6.39635 17.3743 7.46191 22.793C8.52781 28.2119 13.7852 31.7416 19.2041 30.6758C24.6231 29.6099 28.1518 24.3526 27.0859 18.9336ZM15.6338 12.5234C20.2398 11.6175 24.7081 14.6167 25.6143 19.2227C26.5203 23.8287 23.5211 28.298 18.915 29.2041C14.3089 30.1101 9.83962 27.1101 8.93359 22.5039C8.02764 17.8978 11.0277 13.4295 15.6338 12.5234ZM21.3779 17.5898C20.7197 17.0546 20.0139 16.8607 19.2607 17.0088C18.7114 17.1168 18.2499 17.4025 17.876 17.8643C17.8278 17.9229 17.7808 17.9847 17.735 18.05C17.2664 18.7169 16.2458 18.9308 15.5599 18.4904C15.4903 18.4457 15.4215 18.4053 15.3535 18.3691C14.8597 18.1016 14.3436 18.0202 13.8057 18.126C13.0469 18.2754 12.4902 18.7031 12.1348 19.4082C11.785 20.1124 11.7074 20.9601 11.9023 21.9512C12.0862 22.8855 12.5039 23.6178 13.1553 24.1484C13.8124 24.6781 14.5235 24.8682 15.2881 24.7178C15.8261 24.6119 16.2776 24.3371 16.6436 23.8945C16.7116 23.8133 16.7776 23.7252 16.8417 23.6303C17.2847 22.9737 18.2542 22.7663 18.9078 23.214C19.0116 23.2851 19.1126 23.3466 19.2109 23.3984C19.6946 23.6445 20.2061 23.7152 20.7441 23.6094C21.503 23.4601 22.0583 23.0362 22.4092 22.3379C22.7646 21.6327 22.8451 20.7871 22.6514 19.8018C22.4664 18.8616 22.0418 18.124 21.3779 17.5898ZM14.1055 19.4707C14.5868 19.376 15.0392 19.4162 15.4619 19.5918C15.7593 19.7129 16.0439 19.899 16.3157 20.1498C16.5516 20.3674 16.6247 20.7049 16.5376 21.0137C16.3215 21.7802 16.0891 22.3492 15.8398 22.7207C15.5452 23.1669 15.1678 23.4351 14.709 23.5254C14.205 23.6244 13.7485 23.5168 13.3398 23.2031C12.9312 22.8894 12.6701 22.4469 12.5576 21.875C12.4406 21.2803 12.5274 20.7605 12.8164 20.3154C13.1042 19.8648 13.5336 19.5833 14.1055 19.4707ZM19.8428 18.2188C20.3467 18.1197 20.8032 18.2264 21.2119 18.54C21.6207 18.8538 21.8816 19.2971 21.9941 19.8691C22.111 20.4636 22.0258 20.989 21.7393 21.4453C21.4514 21.8961 21.0212 22.1785 20.4492 22.291C19.9735 22.3846 19.5212 22.3435 19.0928 22.1689C18.798 22.0429 18.5134 21.8522 18.2388 21.5971C18.0022 21.3771 17.9279 21.0377 18.0161 20.7269C18.2317 19.9675 18.4611 19.4028 18.7051 19.0332C19.0042 18.5802 19.384 18.309 19.8428 18.2188Z" fill="#DAFAF5" fill-opacity="0.8"/>
</svg>
