<svg width="16" height="16" viewBox="0 0 16 16" fill="none" xmlns="http://www.w3.org/2000/svg">
<path d="M2.93847 2.11328V4.55372H6.81544V2.11328H2.93847ZM0.621094 3.66016V6.03125L3.67672 9.09475H8.19047L8.19041 3.66019H7.39941V5.13772H2.35447V3.66012L0.621094 3.66016ZM8.77441 4.24997V7.04394H11.8682L10.4111 8.50487H8.77441V9.08887H10.6533L10.7393 9.00294L12.5713 7.16606L12.6563 7.08106V7.04394H12.667V4.24997H8.77441ZM13.251 4.82425V6.44144H15.3925V4.82425H13.251ZM5.18553 9.67872C5.18811 9.87865 5.23075 10.076 5.31093 10.2592C5.39111 10.4424 5.5072 10.6076 5.65234 10.7451L3.61816 13.4356C2.81091 13.5118 2.13628 14.0702 1.83784 14.8486H5.77734C5.51828 14.1728 4.97531 13.6629 4.30859 13.4902L5.03125 12.5351H8.19719L8.91891 13.4902C8.25228 13.6629 7.71016 14.1728 7.45109 14.8486H11.3896C11.0913 14.0702 10.4174 13.5118 9.61031 13.4355L7.63281 10.8212C7.96562 10.5503 8.17875 10.1396 8.1855 9.67862H5.1855L5.18553 9.67872ZM6.14844 11.0586C6.31531 11.1227 6.49606 11.1572 6.6855 11.1572C6.83244 11.1572 6.97416 11.136 7.10831 11.0967L7.75488 11.9512H5.47363L6.14841 11.0586L6.14844 11.0586Z" fill="white"/>
</svg>
