<svg width="16" height="16" viewBox="0 0 16 16" fill="none" xmlns="http://www.w3.org/2000/svg">
<path d="M4.50879 1.0002C4.29403 1.00403 4.10059 1.05712 3.93993 1.16118C3.69518 1.31987 3.5542 1.58426 3.51164 1.86085C3.42656 2.4141 3.66728 3.05282 4.16285 3.57594C4.65836 4.09899 5.43092 4.49594 6.42623 4.49594H6.50616L6.20721 3.8981C5.47954 3.84715 4.94623 3.54476 4.59125 3.17007C4.20157 2.75876 4.04885 2.24994 4.09492 1.95072C4.11793 1.80108 4.17367 1.71302 4.26089 1.65649C4.3481 1.59997 4.4941 1.56223 4.74469 1.61302C5.17348 1.6999 5.86708 2.07033 6.7842 2.90102L6.82852 2.85659H7.596C6.43829 1.71561 5.55616 1.17535 4.8619 1.03463C4.77626 1.017 4.68939 1.00598 4.60207 1.00164C4.57059 1.00017 4.53944 0.999641 4.50879 1.0002ZM11.4912 1.0002C11.4606 0.999674 11.4294 1.0002 11.3979 1.00164C11.3139 1.00558 11.2271 1.01656 11.1381 1.03463C10.4438 1.17535 9.56167 1.71561 8.40403 2.85659H9.17144L9.21577 2.90099C10.1329 2.0703 10.8265 1.6999 11.2553 1.61299C11.5059 1.56217 11.6519 1.59994 11.7391 1.65646C11.8263 1.71302 11.882 1.80105 11.905 1.95066C11.9511 2.24987 11.7984 2.75869 11.4087 3.17C11.0537 3.54476 10.5204 3.84712 9.79275 3.89807L9.49384 4.49594H9.57377C10.5691 4.49594 11.3416 4.09902 11.8371 3.57594C12.3327 3.05282 12.5734 2.4141 12.4884 1.86085C12.4458 1.58426 12.3048 1.31987 12.0601 1.16118C11.8994 1.05712 11.706 1.00403 11.4912 1.0002ZM7.07311 3.44676L6.78525 3.73453L7.13325 4.43036H8.86685L9.21472 3.73453L8.92695 3.44676H7.07318H7.07311ZM2 5.02053V6.52872H6.65574V5.02053H2ZM7.2459 5.02053V13.873H8.7541V5.02053H7.2459ZM9.34426 5.02053V6.52872H14V5.02053H9.34426ZM3.04918 7.11889V13.873H6.65574V7.11889H3.04918ZM9.34426 7.11889V13.873H12.9508V7.11889H9.34426Z" fill="white"/>
</svg>
