<svg width="60" height="60" viewBox="0 0 60 60" fill="none" xmlns="http://www.w3.org/2000/svg">
<path d="M26.6645 3.03125L41.7813 23.8062L16.0481 3.9793L30.3594 23.3105L2.43477 3.06148H2.43418L23.535 30.2712L4.20406 15.1386L24.031 41.5565L2.36328 25.6698L27.055 52.4148C34.0856 59.0722 45.205 58.9564 52.0938 52.0675C58.9823 45.1789 59.0981 34.0596 52.4409 27.0288L26.6645 3.03125ZM41.717 29.1471C44.9272 29.1471 48.1372 30.3717 50.5864 32.8209C55.4848 37.7193 55.4848 45.6616 50.5864 50.56C45.688 55.4585 37.7458 55.4585 32.8474 50.56C27.9489 45.6614 27.9489 37.7192 32.8474 32.8207C35.2966 30.3714 38.507 29.1468 41.7171 29.1468L41.717 29.1471ZM40.9278 31.5768C38.9278 31.5835 36.5942 32.4268 34.7666 34.0228C33.2274 35.3667 32.3686 36.9542 32.163 38.3466C31.9576 39.7388 32.3315 40.8985 33.3602 41.758C35.4174 43.4768 39.8327 43.0687 42.911 40.3808C44.4501 39.0366 45.3089 37.4493 45.5145 36.0569C45.7201 34.6647 45.346 33.505 44.3175 32.6456C43.4817 31.9471 42.2963 31.5721 40.9279 31.5768H40.9278ZM46.5027 46.1512C45.4952 46.1547 44.2687 46.5855 43.3222 47.3993C42.525 48.0846 42.1081 48.8758 42.013 49.5098C41.9178 50.1438 42.0657 50.5862 42.5185 50.9587C43.4244 51.7037 45.7221 51.5689 47.3164 50.1982C48.1135 49.5131 48.5305 48.722 48.6254 48.0878C48.7207 47.4536 48.5727 47.0112 48.12 46.6387C47.752 46.3361 47.1921 46.1489 46.5028 46.1512H46.5027Z" fill="white"/>
</svg>
