<svg width="60" height="60" viewBox="0 0 60 60" fill="none" xmlns="http://www.w3.org/2000/svg">
<g clip-path="url(#clip0_4474_5500)">
<path d="M34.7995 12.877L33.115 13.6574L30.952 22.6686L35.4061 14.4678L34.7997 12.877H34.7995ZM16.3654 14.6644C17.2038 20.2995 19.9125 25.0226 23.7033 29.0016C24.7519 28.292 25.7949 27.5741 26.8321 26.8479C25.2094 24.8474 24.0599 22.7314 23.6393 20.5286C21.1333 18.5882 18.6871 16.6192 16.3654 14.6645L16.3654 14.6644ZM44.9642 14.6668C42.6998 16.5739 40.3167 18.495 37.8755 20.3912C37.1187 24.6564 33.6211 28.5998 29.2169 32.0092C24.4245 35.7192 18.4826 38.8159 13.4494 40.9012L13.4492 43.3021C20.3083 40.8022 27.7717 37.3418 33.7281 32.5654C39.5168 27.9235 43.8597 22.0871 44.9642 14.6668ZM27.6675 15.3511L27.0449 17.3882L30.025 22.7393L29.5215 16.491L27.6675 15.3511ZM36.0675 21.7828C28.3599 27.6605 20.2202 33.1824 13.4494 37.0674V39.4181C18.2773 37.3736 23.8922 34.4003 28.3793 30.9265C32.029 28.1013 34.8849 24.9563 36.0676 21.7828H36.0675ZM25.4794 21.9406C26.0177 23.3241 26.8732 24.7004 27.9696 26.0468C28.4845 25.682 28.9991 25.3122 29.5146 24.9413C28.1637 23.9557 26.8147 22.955 25.4794 21.9406ZM37.8276 30.755C37.1264 31.4488 36.3935 32.1164 35.6372 32.7622C39.6592 35.4937 44.2232 37.8273 48.228 39.5119V37.2347C45.0156 35.4046 41.4822 33.1969 37.8276 30.755ZM34.5386 33.6708C33.6853 34.3534 32.803 35.0077 31.8997 35.637C37.0505 38.9427 42.8369 41.4799 48.2279 43.4281V40.995C43.917 39.2208 38.9188 36.6937 34.5385 33.6708H34.5386ZM30.2448 37.4818L26.8618 43.213L27.4341 44.941L29.4666 44.1101L30.2448 37.4818ZM31.4052 37.5413L35.1679 45.2042L37.8391 45.9572L37.5803 43.6158L31.4053 37.5413H31.4052Z" fill="white"/>
<path d="M21.4258 1.26681L32.6256 12.4701V5.09292C44.4255 6.26827 53.8254 15.671 55.0003 27.4745H60.0003C58.3503 7.54364 38.7256 -3.98473 21.4258 1.26681Z" fill="white"/>
<path d="M27.3746 54.9069C15.5748 53.7316 6.17492 44.3288 4.99993 32.5254H0C1.64998 52.4562 21.2747 63.9846 38.5745 58.733L27.3746 47.5298V54.9069Z" fill="white"/>
</g>
<defs>
<clipPath id="clip0_4474_5500">
<rect width="60.0003" height="59.9998" fill="white"/>
</clipPath>
</defs>
</svg>
