<svg width="60" height="60" viewBox="0 0 60 60" fill="none" xmlns="http://www.w3.org/2000/svg">
<path d="M36.4808 3.00391L33.7855 4.25266L30.3247 18.6705L37.4514 5.54922L36.4811 3.00391H36.4808ZM6.98613 5.86387C8.3277 14.8799 12.6615 22.4369 18.7269 28.8033C20.4047 27.6679 22.0734 26.5193 23.7329 25.3574C21.1365 22.1566 19.2974 18.771 18.6244 15.2465C14.6149 12.142 10.701 8.99148 6.98625 5.86398L6.98613 5.86387ZM52.7443 5.86762C49.1213 8.91895 45.3082 11.9928 41.4023 15.0268C40.1914 21.8511 34.5953 28.1604 27.5487 33.6155C19.8807 39.5515 10.3737 44.5062 2.32055 47.8428L2.32031 51.6842C13.2949 47.6843 25.2363 42.1477 34.7666 34.5054C44.0285 27.0783 50.977 17.7401 52.7443 5.86762ZM25.0696 6.96262L24.0735 10.222L28.8416 18.7837L28.0359 8.78641L25.0696 6.96262ZM38.5096 17.2532C26.1773 26.6576 13.1539 35.4926 2.32055 41.7086V45.4697C10.0452 42.1986 19.0291 37.4412 26.2085 31.8832C32.048 27.3629 36.6173 22.3309 38.5097 17.2532H38.5096ZM21.5686 17.5057C22.4299 19.7194 23.7987 21.9214 25.553 24.0756C26.3768 23.492 27.2002 22.9002 28.0249 22.3068C25.8635 20.7299 23.705 19.1288 21.5686 17.5057ZM41.3257 31.6088C40.2039 32.7188 39.0312 33.7871 37.8211 34.8203C44.2563 39.1907 51.5588 42.9245 57.9663 45.6198V41.9764C52.8265 39.0481 47.173 35.5158 41.3257 31.6088ZM36.0633 36.274C34.698 37.3662 33.2864 38.413 31.841 39.4199C40.0823 44.7092 49.3406 48.7686 57.9662 51.8857V47.9928C51.0688 45.1541 43.0717 41.1107 36.0632 36.274H36.0633ZM29.1932 42.3716L23.7805 51.5416L24.6961 54.3064L27.948 52.977L29.1932 42.3716ZM31.0499 42.4668L37.0703 54.7275L41.3441 55.9322L40.9301 52.1861L31.05 42.4668H31.0499Z" fill="white"/>
</svg>
