<svg width="60" height="60" viewBox="0 0 60 60" fill="none" xmlns="http://www.w3.org/2000/svg">
<g clip-path="url(#clip0_4474_5494)">
<path d="M27.9132 13.1504L37.3627 26.1367L21.277 13.743L30.2229 25.8269L12.7673 13.1693H12.767L25.957 30.178L13.8733 20.7186L26.2671 37.2324L12.7227 27.3016L28.1574 44.0198C32.5521 48.1813 39.5028 48.1089 43.809 43.8027C48.1149 39.4967 48.1873 32.546 44.0259 28.1511L27.9132 13.1504ZM37.3225 29.4753C39.3292 29.4753 41.3357 30.2408 42.8667 31.7718C45.9287 34.8337 45.9287 39.7984 42.8667 42.8604C39.8047 45.9224 34.8401 45.9224 31.7781 42.8604C28.7161 39.7983 28.7161 34.8337 31.7781 31.7716C33.3091 30.2406 35.3159 29.4751 37.3225 29.4751L37.3225 29.4753ZM36.8292 30.9941C35.5789 30.9983 34.1203 31.5254 32.9778 32.523C32.0157 33.3631 31.4788 34.3555 31.3503 35.2259C31.2219 36.0961 31.4557 36.821 32.0987 37.3583C33.3846 38.4327 36.1446 38.1776 38.0688 36.4974C39.0309 35.6572 39.5677 34.665 39.6963 33.7946C39.8248 32.9243 39.591 32.1994 38.948 31.6622C38.4256 31.2256 37.6846 30.9912 36.8292 30.9941H36.8292ZM40.314 40.1045C39.6842 40.1067 38.9175 40.3759 38.3259 40.8846C37.8275 41.313 37.567 41.8076 37.5075 42.2039C37.448 42.6002 37.5405 42.8767 37.8235 43.1096C38.3898 43.5753 39.826 43.491 40.8226 42.6342C41.3209 42.206 41.5816 41.7114 41.6409 41.3151C41.7004 40.9186 41.6079 40.6421 41.3249 40.4092C41.0949 40.2201 40.7449 40.103 40.314 40.1045H40.314Z" fill="white"/>
<path d="M21.4258 1.26681L32.6256 12.4701V5.09292C44.4255 6.26827 53.8254 15.671 55.0003 27.4745H60.0003C58.3503 7.54364 38.7256 -3.98473 21.4258 1.26681Z" fill="white"/>
<path d="M27.3746 54.9069C15.5748 53.7316 6.17492 44.3288 4.99993 32.5254H0C1.64998 52.4562 21.2747 63.9846 38.5745 58.733L27.3746 47.5298V54.9069Z" fill="white"/>
</g>
<defs>
<clipPath id="clip0_4474_5494">
<rect width="60.0003" height="59.9998" fill="white"/>
</clipPath>
</defs>
</svg>
