<svg width="26" height="29" viewBox="0 0 26 29" fill="none" xmlns="http://www.w3.org/2000/svg">
<path d="M5.43792 0C4.40667 0 3.48167 0.2125 2.8573 0.525C2.23855 0.8375 2.00105 1.1875 2.00105 1.4375C2.00105 1.68125 2.23855 2.03813 2.8573 2.34375C3.48167 2.65625 4.40667 2.875 5.43792 2.875C6.46917 2.875 7.39417 2.65625 8.01292 2.34375C8.63792 2.03813 8.87542 1.68125 8.87542 1.4375C8.87542 1.1875 8.63792 0.8375 8.01292 0.525C7.39417 0.2125 6.46917 0 5.43792 0ZM15.4379 2C14.4067 2 13.4817 2.2125 12.8629 2.525C12.2379 2.8375 12.0004 3.1875 12.0004 3.4375C12.0004 3.68125 12.2379 4.03813 12.8629 4.34375C13.4817 4.65625 14.4067 4.87437 15.4379 4.87437C15.7254 4.87437 16.0004 4.85562 16.2629 4.82437C16.5317 4.48125 16.9129 4.17687 17.3567 3.97437C17.8692 3.74312 18.4629 3.55562 18.8754 3.4375C18.8754 3.1875 18.6379 2.8375 18.0129 2.525C17.3942 2.2125 16.4692 2 15.4379 2ZM2.00105 3.14937C1.97605 4.06562 2.96855 4.43937 3.59417 4.62437C4.71292 4.94937 6.16292 4.94937 7.28167 4.62437C8.08167 4.39562 8.86917 3.95437 8.87542 3.14937C7.86917 3.81375 6.40042 3.9925 5.43792 3.99937C4.21917 3.8975 2.93917 3.77125 2.00105 3.14937ZM20.4379 4.45625C19.4067 4.45625 18.4817 4.66875 17.8629 4.98688C17.2379 5.29313 17.0004 5.64938 17.0004 5.89313C17.0004 6.14313 17.2379 6.49312 17.8629 6.80562C18.4817 7.11812 19.4067 7.33063 20.4379 7.33063C21.4692 7.33063 22.3942 7.11812 23.0129 6.80562C23.6379 6.49312 23.8754 6.14313 23.8754 5.89313C23.8754 5.64938 23.6379 5.29313 23.0129 4.98688C22.3942 4.66875 21.4692 4.45625 20.4379 4.45625ZM12.0004 5.14937V5.29938C12.1817 5.36188 12.3567 5.43688 12.5192 5.51813C13.0817 5.79938 13.5692 6.19312 13.8192 6.68687C14.4567 6.84312 15.1754 6.89937 15.8754 6.85562V5.98688C15.7317 5.99313 15.5879 5.99937 15.4379 5.99937C14.2567 5.99937 13.1817 5.76812 12.3567 5.35562C12.2317 5.29312 12.1129 5.22437 12.0004 5.14937ZM2.00105 5.15562C1.9798 6.06812 2.97105 6.44313 3.59417 6.63063C4.01917 6.74938 4.49417 6.83062 4.98167 6.85562C5.10667 6.53062 5.33167 6.24312 5.61917 5.99937C4.81917 6.01812 4.01292 5.91812 3.28167 5.71187C2.7948 5.56812 2.36355 5.38687 2.00105 5.15562ZM9.43792 5.99937C8.40667 5.99937 7.48167 6.21812 6.86292 6.52437C6.23792 6.83687 6.00042 7.18687 6.00042 7.43687C6.00042 7.68687 6.23792 8.03688 6.86292 8.34938C7.48167 8.66188 8.40667 8.87438 9.43792 8.87438C10.4692 8.87438 11.3942 8.66188 12.0129 8.34938C12.6379 8.03688 12.8754 7.68687 12.8754 7.43687C12.8754 7.18687 12.6379 6.83687 12.0129 6.52437C11.3942 6.21812 10.4692 5.99937 9.43792 5.99937ZM2.00105 7.15562C1.9798 8.06812 2.97105 8.44313 3.59417 8.63063C3.98792 8.74313 4.42542 8.81813 4.87542 8.84938V7.98688C4.32542 7.94938 3.78792 7.85562 3.28167 7.71187C2.7948 7.56812 2.36355 7.38687 2.00105 7.15562ZM17.0004 7.61188C16.9879 8.53063 17.9629 8.89937 18.5942 9.08687C19.7129 9.41187 21.1629 9.41187 22.2817 9.08687C23.0754 8.85562 23.8692 8.41813 23.8754 7.61188C23.7629 7.68063 23.6442 7.74937 23.5192 7.81187C22.6942 8.22437 21.6192 8.45563 20.4379 8.45563C19.2567 8.45563 18.1817 8.22437 17.3567 7.81187C17.2317 7.74937 17.1129 7.68063 17.0004 7.61188ZM14.0004 7.87437V8.73063C14.5879 8.84938 15.2442 8.89313 15.8754 8.85563V7.99312C15.2442 8.02437 14.6067 7.98687 14.0004 7.87437ZM6.00042 9.14937C5.96917 9.52437 6.13792 9.83063 6.34417 10.0119C6.60667 10.2369 7.03167 10.4681 7.59417 10.6306C8.71292 10.9494 10.1629 10.9494 11.2817 10.6306C11.8442 10.4681 12.2692 10.2369 12.5317 10.0119C12.8379 9.75563 12.8754 9.50562 12.8754 9.14937C12.7629 9.22437 12.6442 9.29313 12.5192 9.35563C11.6942 9.76813 10.6192 9.99938 9.43792 9.99938C8.25667 9.99938 7.18167 9.76813 6.35667 9.35563C6.23167 9.29313 6.11292 9.22437 6.00042 9.14937ZM2.00105 9.15563C1.9798 10.0681 2.97105 10.4431 3.59417 10.6306C3.98792 10.7431 4.42542 10.8181 4.87542 10.8494V9.98688C4.32542 9.94938 3.78792 9.85562 3.28167 9.71187C2.7948 9.56812 2.36355 9.38688 2.00105 9.15563ZM17.0004 9.61188C16.9879 10.5306 17.9629 10.8994 18.5942 11.0869C19.7129 11.4119 21.1629 11.4119 22.2817 11.0869C23.0754 10.8556 23.8692 10.4181 23.8754 9.61188C23.5129 9.84313 23.0817 10.0244 22.5942 10.1681C21.2379 10.5619 19.6379 10.5619 18.2817 10.1681C17.7942 10.0244 17.3629 9.84313 17.0004 9.61188ZM14.0004 9.87438V10.7306C14.5879 10.8494 15.2442 10.8931 15.8754 10.8556V9.99312C15.2442 10.0244 14.6067 9.98688 14.0004 9.87438ZM2.00105 11.1556C1.9798 12.0681 2.97105 12.4431 3.59417 12.6306C3.98792 12.7431 4.42542 12.8181 4.87542 12.8494V11.9869C4.32542 11.9494 3.78792 11.8556 3.28167 11.7119C2.7948 11.5681 2.36355 11.3869 2.00105 11.1556ZM6.00042 11.1556C5.96917 11.5306 6.13792 11.8306 6.34417 12.0119C6.60667 12.2369 7.03167 12.4681 7.59417 12.6306C8.71292 12.9494 10.1629 12.9494 11.2817 12.6306C11.8442 12.4681 12.2692 12.2369 12.5317 12.0119C12.8379 11.7556 12.8754 11.5119 12.8754 11.1556C12.5129 11.3869 12.0817 11.5681 11.5942 11.7119C10.2379 12.0994 8.63792 12.0994 7.28167 11.7119C6.79417 11.5681 6.36292 11.3869 6.00042 11.1556ZM17.0004 11.6119C16.9879 12.5306 17.9629 12.8994 18.5942 13.0869C19.7129 13.4119 21.1629 13.4119 22.2817 13.0869C23.0754 12.8556 23.8692 12.4181 23.8754 11.6119C23.5129 11.8431 23.0817 12.0244 22.5942 12.1681C21.2379 12.5619 19.6379 12.5619 18.2817 12.1681C17.7942 12.0244 17.3629 11.8431 17.0004 11.6119ZM14.0004 11.8744V12.7306C14.5879 12.8494 15.2442 12.8931 15.8754 12.8556V11.9931C15.2442 12.0244 14.6067 11.9869 14.0004 11.8744ZM6.00042 13.1556V13.2994C6.18167 13.3619 6.35667 13.4369 6.51917 13.5181C7.08167 13.7994 7.56917 14.1931 7.81917 14.6869C8.90042 14.9494 10.2379 14.9306 11.2817 14.6306C11.8442 14.4681 12.2692 14.2369 12.5317 14.0119C12.8379 13.7556 12.8754 13.5119 12.8754 13.1556C12.5129 13.3869 12.0817 13.5681 11.5942 13.7119C10.2379 14.0994 8.63792 14.0994 7.28167 13.7119C6.79417 13.5681 6.36292 13.3869 6.00042 13.1556ZM17.0004 13.6119C16.9879 14.5306 17.9629 14.8994 18.5942 15.0869C19.7129 15.4119 21.1629 15.4119 22.2817 15.0869C23.0754 14.8556 23.8692 14.4181 23.8754 13.6119C23.5129 13.8431 23.0817 14.0244 22.5942 14.1681C21.2379 14.5619 19.6379 14.5619 18.2817 14.1681C17.7942 14.0244 17.3629 13.8431 17.0004 13.6119ZM14.0004 13.8744V14.7306C14.5879 14.8494 15.2442 14.8931 15.8754 14.8556V13.9931C15.2442 14.0244 14.6067 13.9869 14.0004 13.8744ZM3.43792 13.9994C2.4073 13.9994 1.4823 14.2181 0.857297 14.5244C0.238547 14.8369 0.00104739 15.1869 0.00104739 15.4369C0.00104739 15.6869 0.238547 16.0369 0.857297 16.3494C1.4823 16.6619 2.4073 16.8744 3.43792 16.8744C4.46917 16.8744 5.39417 16.6619 6.01292 16.3494C6.63792 16.0369 6.87542 15.6869 6.87542 15.4369C6.87542 15.1869 6.63792 14.8369 6.01292 14.5244C5.39417 14.2181 4.46917 13.9994 3.43792 13.9994ZM12.8754 15.1556C12.5129 15.3869 12.0817 15.5681 11.5942 15.7119C10.4692 16.0306 9.18167 16.0869 8.00042 15.8744V16.7306C9.05042 16.9494 10.2942 16.9119 11.2817 16.6306C12.0692 16.3994 12.8692 15.9556 12.8754 15.1556ZM17.0004 15.6119C16.9817 16.4994 17.9192 16.8806 18.5379 17.0681C18.8879 16.7869 19.2067 16.5744 19.5817 16.4181C19.1317 16.3681 18.6942 16.2869 18.2817 16.1681C17.7942 16.0244 17.3629 15.8431 17.0004 15.6119ZM23.8754 15.6119C23.7004 15.7244 23.5067 15.8244 23.2942 15.9181C23.4879 15.9369 23.6817 15.9619 23.8629 15.9931C23.8879 15.8681 23.8754 15.7431 23.8754 15.6119ZM14.0004 15.8744V16.7244C14.6817 16.8556 15.2504 16.8869 15.8754 16.8619V15.9931C15.2442 16.0244 14.6067 15.9869 14.0004 15.8744ZM22.4379 16.9994C21.4067 16.9994 20.4817 17.2181 19.8629 17.5244C19.2379 17.8369 19.0004 18.1869 19.0004 18.4369C19.0004 18.6869 19.2379 19.0369 19.8629 19.3494C20.4817 19.6619 21.4067 19.8744 22.4379 19.8744C23.4692 19.8744 24.3942 19.6619 25.0129 19.3494C25.6379 19.0369 25.8754 18.6869 25.8754 18.4369C25.8754 18.1869 25.6379 17.8369 25.0129 17.5244C24.3942 17.2181 23.4692 16.9994 22.4379 16.9994ZM0.00104739 17.1494C-0.0170776 18.0744 0.957923 18.4431 1.5948 18.6306C2.71355 18.9494 4.16292 18.9494 5.28167 18.6306C6.07542 18.3994 6.86917 17.9556 6.87542 17.1494C6.76292 17.2244 6.64417 17.2931 6.51917 17.3556C5.69417 17.7681 4.61917 17.9994 3.43792 17.9994C2.2123 17.8994 0.945422 17.7744 0.00104739 17.1494ZM12.8754 17.1556C12.5129 17.3869 12.0817 17.5681 11.5942 17.7119C10.4692 18.0306 9.18167 18.0869 8.00042 17.8744V18.7306C9.05042 18.9494 10.2942 18.9119 11.2817 18.6306C12.0692 18.3994 12.8692 17.9556 12.8754 17.1556ZM17.0004 17.6119C16.9754 18.2556 17.5004 18.6181 17.8629 18.8056C17.8629 18.8056 17.8692 18.8119 17.8754 18.8119V18.0369C17.5504 17.9181 17.2567 17.7744 17.0004 17.6119ZM0.00104739 19.1556C-0.0202026 20.0681 0.971048 20.4431 1.5948 20.6306C2.71355 20.9494 4.16292 20.9494 5.28167 20.6306C6.06917 20.3994 6.86917 19.9556 6.87542 19.1556C6.51292 19.3869 6.08167 19.5681 5.59417 19.7119C4.23792 20.0994 2.63855 20.0994 1.2823 19.7119C0.794798 19.5681 0.363547 19.3869 0.00104739 19.1556ZM8.00042 19.8744V20.7244C8.30667 20.7931 8.63792 20.8369 8.98167 20.8619C9.10667 20.5306 9.33167 20.2431 9.61917 19.9994C9.07542 20.0119 8.52542 19.9681 8.00042 19.8744ZM13.4379 19.9994C12.4067 19.9994 11.4817 20.2181 10.8629 20.5244C10.2379 20.8369 10.0004 21.1869 10.0004 21.4369C10.0004 21.6869 10.2379 22.0369 10.8629 22.3494C11.4817 22.6619 12.4067 22.8744 13.4379 22.8744C14.4692 22.8744 15.3942 22.6619 16.0129 22.3494C16.6379 22.0369 16.8754 21.6869 16.8754 21.4369C16.8754 21.1869 16.6379 20.8369 16.0129 20.5244C15.3942 20.2181 14.4692 19.9994 13.4379 19.9994ZM19.0004 20.1494C18.9942 21.0744 19.9504 21.4431 20.5942 21.6306C21.7129 21.9494 23.1629 21.9494 24.2817 21.6306C25.0754 21.3994 25.8692 20.9556 25.8754 20.1494C24.8879 20.7494 23.3942 20.9931 22.4379 20.9994C21.2129 20.8994 19.9442 20.7744 19.0004 20.1494ZM0.00104739 21.1556C-0.0202026 22.0681 0.971048 22.4431 1.5948 22.6306C2.71355 22.9494 4.16292 22.9494 5.28167 22.6306C6.06917 22.3994 6.86917 21.9556 6.87542 21.1556C6.51292 21.3869 6.08167 21.5681 5.59417 21.7119C4.23792 22.0994 2.63855 22.0994 1.2823 21.7119C0.794798 21.5681 0.363547 21.3869 0.00104739 21.1556ZM19.0004 22.1556C18.9879 23.0744 19.9629 23.4431 20.5942 23.6306C21.7129 23.9494 23.1629 23.9494 24.2817 23.6306C25.0692 23.3994 25.8692 22.9556 25.8754 22.1556C25.5129 22.3869 25.0817 22.5681 24.5942 22.7119C23.2379 23.0994 21.6379 23.0994 20.2817 22.7119C19.7942 22.5681 19.3629 22.3869 19.0004 22.1556ZM10.0004 23.1494C9.96917 23.5244 10.1379 23.8306 10.3442 24.0119C10.6067 24.2369 11.0317 24.4681 11.5942 24.6306C12.7129 24.9494 14.1629 24.9494 15.2817 24.6306C15.8442 24.4681 16.2692 24.2369 16.5317 24.0119C16.7942 23.7869 16.8754 23.5931 16.8754 23.4369V23.1494C16.7629 23.2244 16.6442 23.2931 16.5192 23.3556C15.6942 23.7681 14.6192 23.9994 13.4379 23.9994C12.2567 23.9994 11.1817 23.7681 10.3567 23.3556C10.2317 23.2931 10.1129 23.2244 10.0004 23.1494ZM0.00104739 23.1556C-0.0202026 24.0681 0.971048 24.4431 1.5948 24.6306C2.71355 24.9494 4.16292 24.9494 5.28167 24.6306C6.06917 24.3994 6.86917 23.9556 6.87542 23.1556C6.51292 23.3869 6.08167 23.5681 5.59417 23.7119C4.23792 24.0994 2.63855 24.0994 1.2823 23.7119C0.794798 23.5681 0.363547 23.3869 0.00104739 23.1556ZM19.0004 24.1556C18.9879 25.0744 19.9629 25.4431 20.5942 25.6306C21.7129 25.9494 23.1629 25.9494 24.2817 25.6306C25.0692 25.3994 25.8692 24.9556 25.8754 24.1556C25.5129 24.3869 25.0817 24.5681 24.5942 24.7119C23.2379 25.0994 21.6379 25.0994 20.2817 24.7119C19.7942 24.5681 19.3629 24.3869 19.0004 24.1556ZM0.00104739 25.1556C-0.0202026 26.0681 0.971048 26.4431 1.5948 26.6306C2.71355 26.9494 4.16292 26.9494 5.28167 26.6306C6.06917 26.3994 6.86917 25.9556 6.87542 25.1556C6.51292 25.3869 6.08167 25.5681 5.59417 25.7119C4.23792 26.0994 2.63855 26.0994 1.2823 25.7119C0.794798 25.5681 0.363547 25.3869 0.00104739 25.1556ZM10.0004 25.1556C9.97542 25.7994 10.5004 26.1619 10.8629 26.3494C11.4817 26.6619 12.4067 26.8744 13.4379 26.8744C14.4692 26.8744 15.3942 26.6619 16.0129 26.3494C16.6317 25.9619 16.8754 25.8119 16.8754 25.1556C16.5129 25.3869 16.0817 25.5681 15.5942 25.7119C14.2379 26.0994 12.6379 26.0994 11.2817 25.7119C10.7942 25.5681 10.3629 25.3869 10.0004 25.1556ZM19.0004 26.1556C18.9754 26.7994 19.5004 27.1619 19.8629 27.3494C20.4817 27.6619 21.4067 27.8744 22.4379 27.8744C23.4692 27.8744 24.3942 27.6619 25.0129 27.3494C25.6317 26.9619 25.8754 26.8119 25.8754 26.1556C25.5129 26.3869 25.0817 26.5681 24.5942 26.7119C23.2379 27.0994 21.6379 27.0994 20.2817 26.7119C19.7942 26.5681 19.3629 26.3869 19.0004 26.1556ZM0.00104739 27.1556C-0.0264526 27.7931 0.493547 28.1619 0.857297 28.3494C1.4823 28.6619 2.4073 28.8744 3.43792 28.8744C4.46917 28.8744 5.39417 28.6619 6.01292 28.3494C6.63167 27.9619 6.87542 27.8119 6.87542 27.1556C6.51292 27.3869 6.08167 27.5681 5.59417 27.7119C4.23792 28.0994 2.63855 28.0994 1.2823 27.7119C0.794798 27.5681 0.363547 27.3869 0.00104739 27.1556Z" fill="white"/>
</svg>
