<svg width="60" height="60" viewBox="0 0 60 60" fill="none" xmlns="http://www.w3.org/2000/svg">
<path d="M28.2898 2.46094L26.5062 6.5332C25.5829 6.58954 24.6643 6.7058 23.7561 6.88125L21.0278 3.35813L18.0871 4.35797L18.0724 8.84039C16.8267 9.4807 15.6329 10.2548 14.5052 11.1584L10.3492 9.28711L8.22141 11.5504L10.3491 15.5859C9.67025 16.5536 9.07371 17.5765 8.5657 18.6438L4.00266 18.7683L3.07617 21.7308L6.76031 24.4446C6.58395 25.5438 6.49781 26.6545 6.49289 27.7662L2.40234 29.8389L2.83078 32.915L7.32059 33.7939C7.58899 34.7337 7.92181 35.6538 8.31668 36.5479L5.35781 40.2211L7.00934 42.8503L11.6089 41.7737C11.9 42.1162 12.2016 42.4496 12.5134 42.7733C13.1646 43.4469 13.8582 44.078 14.59 44.663L13.6964 49.27L16.3845 50.8227L19.8963 47.7648C20.9012 48.1687 21.9358 48.4944 22.9909 48.7389L24.1372 53.2396L27.2316 53.4923L29.0919 49.2478C30.3775 49.1705 31.6588 48.9783 32.9188 48.6691L35.8743 52.0934L38.7562 50.9398L38.6719 49.2039L31.9446 44.1027C29.9862 44.5978 27.9553 44.7304 25.9607 44.5054C22.2395 44.0858 18.6634 42.4054 15.857 39.5031C9.44238 32.8686 9.62578 22.3152 16.2599 15.9008C19.4732 12.7938 23.6064 11.2177 27.7443 11.173C32.1493 11.1254 36.5584 12.8132 39.8659 16.234C45.2489 21.8018 45.9826 30.1775 42.1583 36.5186L45.9048 39.3604C46.3706 38.6299 46.7913 37.8716 47.1646 37.0898L51.6945 36.9653L52.6209 34.0028L48.9627 31.3075C49.1391 30.1992 49.2285 29.0788 49.2299 27.9566L53.2949 25.8912L52.8666 22.815L48.3806 21.9361C48.0032 20.6366 47.5029 19.3761 46.8865 18.1714L49.5595 14.469L47.7724 11.9311L43.3709 13.2091C43.3155 13.1505 43.2619 13.0911 43.2059 13.0334C42.5131 12.3165 41.7716 11.6484 40.9867 11.0337L41.829 6.68309L39.1406 5.13047L35.8008 8.03836C34.7196 7.60324 33.6091 7.26457 32.4829 7.01297L31.388 2.71359L28.2898 2.46094ZM21.4746 20.4492C20.2624 20.463 19.0609 20.7607 17.959 21.3023L23.2582 25.3235C24.8609 26.5395 25.3154 28.8503 24.0855 30.4724C22.8553 32.0954 20.493 32.3394 18.8672 31.1061L13.5717 27.0887C13.0295 29.9941 14.0563 33.0727 16.571 34.9806C18.8263 36.6912 21.7207 37.0114 24.214 36.1159L24.7741 35.9143L25.2464 36.2733L41.089 48.2925L41.5612 48.6513L41.5209 49.2447C41.3291 51.8872 42.4104 54.5896 44.6667 56.3013C47.1816 58.2091 50.4259 58.3673 53.0784 57.063L47.7832 53.0459C46.1573 51.8123 45.758 49.4709 46.9887 47.8493C48.2191 46.2274 50.5672 46.044 52.1704 47.2596L57.4658 51.2772C58.0068 48.3728 56.9842 45.2927 54.4702 43.3853C52.2069 41.6675 49.3354 41.3272 46.8567 42.2095L46.3001 42.4073L45.8278 42.0484L29.9852 30.0294L29.513 29.6705L29.5533 29.081C29.7349 26.4575 28.6334 23.7848 26.3708 22.0679C24.9008 20.9528 23.1807 20.4299 21.4747 20.4493L21.4746 20.4492ZM26.5796 31.0254L45.7837 45.597L44.4616 47.3438L25.2539 32.7686L26.5796 31.0254Z" fill="white"/>
</svg>
