<svg width="42" height="42" viewBox="0 0 42 42" fill="none" xmlns="http://www.w3.org/2000/svg">
<path d="M21.1071 0.648654C21.0767 0.64891 21.0463 0.649473 21.016 0.650189C20.7815 0.677822 20.4967 0.858718 20.1764 1.2963C19.8261 1.77466 19.474 2.52506 19.1737 3.47431C18.6059 5.26884 18.2118 7.7759 18.1054 10.5953H24.0399C23.9338 7.7757 23.5428 5.26741 22.9781 3.47273C22.6793 2.52337 22.3291 1.77451 21.9802 1.29635C21.6538 0.848893 21.3649 0.669788 21.1278 0.648654H21.1263C21.1196 0.64804 21.1135 0.648961 21.1071 0.648654ZM22.871 0.901294C23.2652 1.49336 23.5995 2.26444 23.8896 3.18647C24.4948 5.10954 24.8937 7.69326 24.9995 10.5954H29.2052C28.9437 7.83649 27.9958 5.38792 26.6195 3.62307C25.5682 2.27518 24.2854 1.32731 22.871 0.901294ZM19.2409 0.968484C17.9061 1.4228 16.6917 2.34401 15.6876 3.62466C14.3037 5.38971 13.3496 7.8371 13.0873 10.5954H17.146C17.2519 7.69274 17.6538 5.1079 18.2622 3.18488C18.543 2.29729 18.8644 1.55098 19.2409 0.968484ZM16.4151 1.50257C12.4704 3.03407 9.57769 6.47299 9 10.5954H12.1167C12.3808 7.63216 13.4051 4.98703 14.936 3.03459C15.3859 2.46073 15.8813 1.94614 16.4151 1.50257ZM26.1524 1.72159C26.5891 2.11342 26.9979 2.55366 27.3742 3.03622C28.8971 4.98898 29.9125 7.63308 30.1759 10.5954H33C32.45 6.65859 29.811 3.34608 26.1524 1.72159ZM9.35974 11.5516L17.8865 20.8955C17.8142 21.1651 17.7777 21.4431 17.7777 21.7222C17.7777 23.4962 19.226 24.9446 21 24.9446C22.7739 24.9446 24.2222 23.4962 24.2222 21.7222C24.2222 21.4364 24.1841 21.1597 24.1135 20.8955L32.6386 11.5516H31.3449L23.6849 19.9455C23.6034 19.8234 23.5136 19.7069 23.4162 19.597L28.2953 11.5516H27.1774L22.6759 18.9732C22.5088 18.8711 22.3326 18.7844 22.1497 18.7143L24.0287 11.5516H23.0404L21.2158 18.508C21.144 18.5029 21.072 18.5002 21 18.4999C20.928 18.5002 20.8559 18.5029 20.7841 18.508L18.9596 11.5516H17.9697L19.8503 18.7143C19.6674 18.7844 19.4913 18.871 19.3242 18.9732L14.8225 11.5516H13.7031L18.5836 19.597C18.4863 19.707 18.3965 19.8234 18.315 19.9455L10.655 11.5516H9.35974Z" fill="white"/>
<path d="M16.875 19.6484C16.5155 19.6484 16.1875 19.9855 16.1875 20.3359V21.7109H16.875V23.0859H14.125C10.9973 23.0859 10.6873 25.5213 10.6875 26.5234V38.8984C10.6876 39.4365 10 40.2734 10 40.2734V41.6484H32V40.2734C32 40.2734 31.3124 39.4365 31.3125 38.8984V26.5234C31.3127 25.5213 31.0027 23.0859 27.875 23.0859H25.125V21.7109H25.8125V20.3359C25.8125 19.9855 25.4845 19.6484 25.125 19.6484H16.875ZM20.1764 21.7109C20.2243 21.7106 20.2695 21.7109 20.3125 21.7109H21.6875C22.375 21.7109 23.75 21.7109 23.75 23.0859H18.25C18.25 21.7969 19.4589 21.716 20.1764 21.7109ZM14.8125 25.8359H27.1875C28.068 25.8359 28.5625 26.3392 28.5625 27.2109V38.2109C28.5625 38.599 28.2081 38.8984 27.875 38.8984H14.125C13.7919 38.8984 13.4375 38.599 13.4375 38.2109V27.2109C13.4375 26.3392 13.932 25.8359 14.8125 25.8359ZM16.1875 27.2109C16.1875 27.2109 14.8125 28.212 14.8125 29.9609V34.7734H17.5625V29.9609C17.5625 28.212 16.1875 27.2109 16.1875 27.2109ZM21 27.2109C21 27.2109 19.625 28.212 19.625 29.9609V34.7734H22.375V29.9609C22.375 28.212 21 27.2109 21 27.2109ZM25.8125 27.2109C25.8125 27.2109 24.4375 28.212 24.4375 29.9609V34.7734H27.1875V29.9609C27.1875 28.212 25.8125 27.2109 25.8125 27.2109ZM14.8125 35.4609V36.8359H17.5625V35.4609H14.8125ZM19.625 35.4609V36.8359H22.375V35.4609H19.625ZM24.4375 35.4609V36.8359H27.1875V35.4609H24.4375Z" fill="white"/>
</svg>
