<svg width="42" height="42" viewBox="0 0 42 42" fill="none" xmlns="http://www.w3.org/2000/svg">
<g clip-path="url(#clip0_5208_60)">
<path d="M21.1071 0.000216217C21.0767 0.000472081 21.0463 0.00103502 21.016 0.00175144C20.7815 0.0293848 20.4967 0.210281 20.1764 0.647859C19.8261 1.12622 19.474 1.87662 19.1737 2.82588C18.6059 4.62041 18.2118 7.12746 18.1054 9.94688H24.0399C23.9338 7.12726 23.5428 4.61897 22.9781 2.82429C22.6793 1.87493 22.3291 1.12607 21.9802 0.647911C21.6538 0.200455 21.3649 0.0213506 21.1278 0.000216217H21.1263C21.1196 -0.000397857 21.1135 0.000523254 21.1071 0.000216217ZM22.871 0.252856C23.2652 0.844926 23.5995 1.616 23.8896 2.53803C24.4948 4.4611 24.8937 7.04482 24.9995 9.94693H29.2052C28.9437 7.18805 27.9958 4.73948 26.6195 2.97464C25.5682 1.62674 24.2854 0.67887 22.871 0.252856ZM19.2409 0.320046C17.9061 0.774359 16.6917 1.69557 15.6876 2.97622C14.3037 4.74128 13.3496 7.18867 13.0873 9.94698H17.146C17.2519 7.04431 17.6538 4.45947 18.2622 2.53644C18.543 1.64885 18.8644 0.902547 19.2409 0.320046ZM16.4151 0.854137C12.4704 2.38564 9.57769 5.82455 9 9.94693H12.1167C12.3808 6.98372 13.4051 4.3386 14.936 2.38615C15.3859 1.8123 15.8813 1.2977 16.4151 0.854137ZM26.1524 1.07316C26.5891 1.46499 26.9979 1.90523 27.3742 2.38779C28.8971 4.34054 29.9125 6.98464 30.1759 9.94693H33C32.45 6.01016 29.811 2.69764 26.1524 1.07316ZM9.35974 10.9032L17.8865 20.247C17.8142 20.5167 17.7777 20.7946 17.7777 21.0738C17.7777 22.8478 19.226 24.2962 21 24.2962C22.7739 24.2962 24.2222 22.8478 24.2222 21.0738C24.2222 20.788 24.1841 20.5113 24.1135 20.247L32.6386 10.9032H31.3449L23.6849 19.2971C23.6034 19.1749 23.5136 19.0585 23.4162 18.9486L28.2953 10.9032H27.1774L22.6759 18.3248C22.5088 18.2226 22.3326 18.1359 22.1497 18.0659L24.0287 10.9032H23.0404L21.2158 17.8595C21.144 17.8544 21.072 17.8517 21 17.8515C20.928 17.8518 20.8559 17.8545 20.7841 17.8596L18.9596 10.9032H17.9697L19.8503 18.0659C19.6674 18.1359 19.4913 18.2226 19.3242 18.3248L14.8225 10.9032H13.7031L18.5836 18.9486C18.4863 19.0585 18.3965 19.175 18.315 19.2971L10.655 10.9032H9.35974Z" fill="white"/>
<path d="M16.5 18.2969C16.1078 18.2969 15.75 18.6645 15.75 19.0469V20.5469H16.5V22.0469H13.5C10.088 22.0469 9.7498 24.7037 9.75 25.7969V39.2969C9.7501 39.8839 9 40.7969 9 40.7969V42.2969H33V40.7969C33 40.7969 32.2499 39.8839 32.25 39.2969V25.7969C32.2502 24.7037 31.912 22.0469 28.5 22.0469H25.5V20.5469H26.25V19.0469C26.25 18.6645 25.8922 18.2969 25.5 18.2969H16.5ZM20.1015 20.5469C20.1538 20.5465 20.2031 20.5469 20.25 20.5469H21.75C22.5 20.5469 24 20.5469 24 22.0469H18C18 20.6406 19.3188 20.5524 20.1015 20.5469ZM14.25 25.0469H27.75C28.7105 25.0469 29.25 25.5959 29.25 26.5469V38.5469C29.25 38.9702 28.8634 39.2969 28.5 39.2969H13.5C13.1367 39.2969 12.75 38.9702 12.75 38.5469V26.5469C12.75 25.5959 13.2895 25.0469 14.25 25.0469ZM15.24 26.5469C15.24 26.5469 14.25 27.639 14.25 29.5469V34.7969H16.3067V29.5469C16.3067 27.639 15.24 26.5469 15.24 26.5469ZM14.25 35.5469V37.0469H16.3067V35.5469H14.25Z" fill="white"/>
<path d="M20.01 29.5469C20.01 27.639 21 26.5469 21 26.5469C21 26.5469 22.0667 27.639 22.0667 29.5469V34.7969H20.01V29.5469Z" fill="white"/>
<path d="M20.01 37.0469V35.5469H22.0667V37.0469H20.01Z" fill="white"/>
<path d="M17.16 29.5469C17.16 27.639 18.15 26.5469 18.15 26.5469C18.15 26.5469 19.2167 27.639 19.2167 29.5469V34.7969H17.16V29.5469Z" fill="white"/>
<path d="M17.16 37.0469V35.5469H19.2167V37.0469H17.16Z" fill="white"/>
<path d="M22.7833 29.5469C22.7833 27.639 23.7733 26.5469 23.7733 26.5469C23.7733 26.5469 24.84 27.639 24.84 29.5469V34.7969H22.7833V29.5469Z" fill="white"/>
<path d="M22.7833 37.0469V35.5469H24.84V37.0469H22.7833Z" fill="white"/>
<path d="M25.5 29.5469C25.5 27.639 26.49 26.5469 26.49 26.5469C26.49 26.5469 27.5567 27.639 27.5567 29.5469V34.7969H25.5V29.5469Z" fill="white"/>
<path d="M25.5 37.0469V35.5469H27.5567V37.0469H25.5Z" fill="white"/>
</g>
<defs>
<clipPath id="clip0_5208_60">
<rect width="42" height="42" fill="white"/>
</clipPath>
</defs>
</svg>
