<svg width="60" height="60" viewBox="0 0 60 60" fill="none" xmlns="http://www.w3.org/2000/svg">
<g clip-path="url(#clip0_4482_7991)">
<path d="M14.6129 12.3223C13.1935 12.3816 12.3721 13.1541 12.395 14.5403L13.8428 16.7947C14.1673 16.7058 14.5284 16.5135 14.8864 16.2574L17.9973 20.6472C16.7509 22.1728 15.7079 23.9021 14.8691 25.8354L16.8137 27.7801C17.6395 26.0516 18.6179 24.4969 19.7374 23.1026L35.1783 44.8903L47.3956 47.3229L44.963 35.1055L23.1698 19.6605C24.6278 18.4808 26.2344 17.4699 27.9783 16.6153L26.0335 14.6707C24.0409 15.5352 22.2658 16.6172 20.7062 17.9147L16.3297 14.813C16.5819 14.4598 16.7737 14.1 16.8675 13.7699L14.6131 12.3223H14.6129ZM43.9713 18.6894V18.69L43.9715 18.6894H43.9713ZM43.9713 18.69L41.9185 27.8431L40.0789 21.9403L38.7529 27.1161L36.7855 23.4803L36.7427 27.7151L46.1531 34.4306L47.2652 40.804L47.1797 27.1161L44.656 30.0248L43.9715 18.6901L43.9713 18.69ZM21.9291 20.7393L38.2053 35.1218L40.0835 40.0107L35.1946 38.1324L20.8129 21.857C21.1725 21.4704 21.5449 21.0982 21.9289 20.7393H21.9291ZM24.2952 35.1149V35.1152H24.2955L24.2952 35.1149ZM24.2955 35.1152L26.3484 36.7833L23.6963 37.0827L27.9311 38.4942L20.189 38.7937L28.6155 40.8042L21.2157 42.1729L30.5406 44.055L25.6214 47.2632L40.8919 47.3915L34.5186 46.2793L26.8619 35.2435L24.2957 35.1152H24.2955Z" fill="white"/>
<path d="M21.4258 1.26681L32.6256 12.4701V5.09292C44.4255 6.26827 53.8254 15.671 55.0003 27.4745H60.0003C58.3503 7.54364 38.7256 -3.98473 21.4258 1.26681Z" fill="white"/>
<path d="M27.3746 54.9069C15.5748 53.7316 6.17492 44.3288 4.99993 32.5254H0C1.64998 52.4562 21.2747 63.9846 38.5745 58.733L27.3746 47.5298V54.9069Z" fill="white"/>
</g>
<defs>
<clipPath id="clip0_4482_7991">
<rect width="60.0003" height="59.9998" fill="white"/>
</clipPath>
</defs>
</svg>
