<svg width="60" height="60" viewBox="0 0 60 60" fill="none" xmlns="http://www.w3.org/2000/svg">
<path d="M30 6.36133C15.3981 6.36133 3.51562 18.2439 3.51562 32.8457C3.51562 38.4548 5.27051 43.6613 8.25762 47.9484L11.7486 45.621C9.68594 42.6772 8.37089 39.2755 7.91707 35.7096H11.25V33.6003H7.74785C7.73965 33.3495 7.73438 33.0982 7.73438 32.8456C7.73438 27.5279 9.58781 22.6538 12.6839 18.8302L14.723 20.8693L16.2144 19.3778L14.0895 17.253C17.8986 13.3664 23.1252 10.8754 28.9453 10.6056V14.0298H31.0547V10.6059C36.8748 10.8756 42.1014 13.3668 45.9105 17.2533L43.7856 19.3782L45.2769 20.8696L47.316 18.8305C50.4121 22.6544 52.2656 27.5282 52.2656 32.8462C52.2656 33.0986 52.2605 33.3501 52.2522 33.6005H48.75V35.7099H52.0828C51.6291 39.2756 50.3141 42.6772 48.2515 45.621L51.7425 47.9484C54.7295 43.6614 56.4844 38.455 56.4844 32.8459C56.4844 18.2441 44.6019 6.36156 30 6.36156V6.36133ZM31.8551 14.1227C33.9695 15.289 35.8402 16.9353 37.3462 18.9551C38.8522 20.9749 39.9601 23.3234 40.5982 25.8487L46.4536 23.7899C46.2927 23.5117 46.1247 23.2377 45.9497 22.9682L45.3479 23.5721L41.7892 20.0225L41.1142 19.3491L42.0341 18.4264C39.1505 16.0017 35.6033 14.5019 31.855 14.1225L31.8551 14.1227ZM50.1539 24.6513L29.6072 31.7528C28.1842 31.9478 27.0703 33.1826 27.0703 34.6551C27.0703 36.2605 28.3945 37.5848 30 37.5848C30.7934 37.5848 31.5176 37.2609 32.0476 36.7401L50.1539 24.6513ZM48.2188 28.439L41.104 33.2109C40.8236 35.7137 40.0917 38.1279 38.952 40.3091C37.8123 42.4902 36.2883 44.3935 34.4712 45.905H43.3841C45.5868 43.6596 47.1892 40.8962 48.0438 37.8692H46.6969V31.7151H48.6916C48.6309 30.6112 48.4727 29.515 48.2188 28.439ZM15 49.4207V53.6395H45V49.4207H15Z" fill="white"/>
</svg>
