<svg width="60" height="60" viewBox="0 0 60 60" fill="none" xmlns="http://www.w3.org/2000/svg">
<g clip-path="url(#clip0_4482_7997)">
<g clip-path="url(#clip1_4482_7997)">
<path d="M30.751 12.8369C32.1844 13.7862 34.2799 14.9255 36.541 15.8945C38.8342 16.8773 41.4521 17.7509 43.835 18.0303V24.125C43.835 27.4661 42.1777 31.868 39.499 36.2305C37.076 40.1766 33.9244 43.9088 30.751 46.5703C27.5777 43.9088 24.4268 40.1764 22.0039 36.2305C19.3252 31.868 17.668 27.4662 17.668 24.125V18.0303C20.0508 17.7509 22.6688 16.8773 24.9619 15.8945C27.2227 14.9256 29.3176 13.7861 30.751 12.8369Z" stroke="white" stroke-width="3"/>
</g>
<path d="M21.4258 1.26681L32.6256 12.4701V5.09292C44.4255 6.26827 53.8254 15.671 55.0003 27.4745H60.0003C58.3503 7.54364 38.7256 -3.98473 21.4258 1.26681Z" fill="white"/>
<path d="M27.3746 54.9069C15.5748 53.7316 6.17492 44.3288 4.99993 32.5254H0C1.64998 52.4562 21.2747 63.9846 38.5745 58.733L27.3746 47.5298V54.9069Z" fill="white"/>
</g>
<defs>
<clipPath id="clip0_4482_7997">
<rect width="60.0003" height="59.9998" fill="white"/>
</clipPath>
<clipPath id="clip1_4482_7997">
<rect width="37.5" height="37.5" fill="white" transform="translate(12 11)"/>
</clipPath>
</defs>
</svg>
