<svg width="60" height="60" viewBox="0 0 60 60" fill="none" xmlns="http://www.w3.org/2000/svg">
<path d="M5.38535 1.70508C3.11426 1.8 1.80012 3.03598 1.83668 5.25387L4.15324 8.8609C4.67238 8.71875 5.25012 8.41113 5.82293 8.00133L10.8004 15.025C8.80606 17.466 7.13731 20.2328 5.79527 23.3261L8.9066 26.4376C10.2279 23.672 11.7934 21.1846 13.5845 18.9536L38.29 53.8139L57.8377 57.7061L53.9455 38.1582L19.0764 13.4463C21.4092 11.5587 23.9797 9.94125 26.77 8.57391L23.6583 5.46258C20.4701 6.84574 17.6299 8.57695 15.1346 10.653L8.13223 5.69027C8.5357 5.12508 8.84262 4.54945 8.99262 4.02129L5.38559 1.70508H5.38535ZM52.3588 11.8925V11.8935L52.3591 11.8925H52.3588ZM52.3588 11.8935L49.0743 26.5384L46.131 17.0939L44.0093 25.3752L40.8614 19.558L40.793 26.3336L55.8497 37.0785L57.6291 47.2758L57.4922 25.3752L53.4543 30.0291L52.359 11.8936L52.3588 11.8935ZM17.0912 15.1724L43.1331 38.1843L46.1384 46.0065L38.3161 43.0012L15.3053 16.9607C15.8807 16.3421 16.4766 15.7466 17.091 15.1724H17.0912ZM20.877 38.1732V38.1737H20.8775L20.877 38.1732ZM20.8775 38.1737L24.1621 40.8427L19.9187 41.3217L26.6945 43.5802L14.3071 44.0594L27.7895 47.2762L15.9498 49.4661L30.8696 52.4774L22.9989 57.6105L47.4318 57.8159L37.2345 56.0364L24.9837 38.379L20.8778 38.1737H20.8775Z" fill="white"/>
</svg>
