<svg width="60" height="60" viewBox="0 0 60 60" fill="none" xmlns="http://www.w3.org/2000/svg">
<path d="M22.0029 14.2539C21.9883 15.0054 21.959 15.7371 21.9077 16.4512H34.7471C34.769 15.7312 34.7764 14.9995 34.7617 14.2539H22.0029ZM21.7979 17.7695C20.853 26.9614 16.8745 33.0698 12.8594 38.1455L21.3071 46.5977C28.7778 37.4058 33.978 29.1587 34.6885 17.7695H32.5498C32.3887 21.3584 30.9385 25.8115 28.9902 30.1255C27.02 34.4834 24.5298 38.6948 22.2373 41.6685L21.2998 40.731C23.4751 37.8672 25.8921 33.7803 27.7891 29.5835C29.686 25.3794 31.063 21.0435 31.2314 17.7695H29.0342C28.873 21.3584 27.4229 25.8115 25.4746 30.1255C23.9219 33.5605 22.0469 36.9077 20.1938 39.625L19.249 38.6729C20.9995 36.0654 22.7939 32.8574 24.2734 29.5835C26.1704 25.3794 27.5474 21.0435 27.7158 17.7695H25.5186C25.3574 21.3584 23.9072 25.8115 21.959 30.1255C20.7944 32.7109 19.4468 35.2378 18.0625 37.4863L17.103 36.5269C18.3921 34.3882 19.6665 32.0078 20.7578 29.5835C22.6548 25.3794 24.0317 21.0435 24.2002 17.7695H21.7979ZM35.8604 28.6826C35.7871 28.8584 35.7065 29.0635 35.626 29.3198C35.3696 30.1475 35.1133 31.3047 34.8936 32.4692C34.6006 34.0293 34.3882 35.5308 34.271 36.373H37.4497C37.3325 35.5308 37.1201 34.0293 36.8272 32.4692C36.6074 31.3047 36.3511 30.1475 36.0947 29.3198C36.0142 29.0635 35.9336 28.8584 35.8604 28.6826ZM40.5479 28.6826C40.4746 28.8584 40.394 29.0635 40.3135 29.3198C40.0571 30.1475 39.8008 31.3047 39.5811 32.4692C39.2881 34.0293 39.0757 35.5308 38.9585 36.373H42.1372C42.02 35.5308 41.8076 34.0293 41.5147 32.4692C41.2949 31.3047 41.0386 30.1475 40.7822 29.3198C40.7017 29.0635 40.6211 28.8584 40.5479 28.6826ZM45.2354 28.6826C45.1621 28.8584 45.0815 29.0635 45.001 29.3198C44.7446 30.1475 44.4883 31.3047 44.2686 32.4692C43.9756 34.0293 43.7632 35.5308 43.646 36.373H46.8247C46.7075 35.5308 46.4951 34.0293 46.2021 32.4692C45.9824 31.3047 45.7261 30.1475 45.4697 29.3198C45.3892 29.0635 45.3086 28.8584 45.2354 28.6826ZM34.1758 37.6914V46.9199H37.5449V37.6914H34.1758ZM38.8633 37.6914V46.9199H42.2324V37.6914H38.8633ZM43.5508 37.6914V46.9199H46.9199V37.6914H43.5508Z" fill="white"/>
<path d="M21.4258 1.26642L32.6256 12.4663V5.09137C44.4255 6.26635 53.8254 15.6662 55.0003 27.4661H60.0003C58.3503 7.54134 38.7256 -3.98351 21.4258 1.26642Z" fill="white"/>
<path d="M27.3746 54.8903C15.5748 53.7153 6.17492 44.3155 4.99993 32.5156H0C1.64998 52.4404 21.2747 63.9652 38.5745 58.7153L27.3746 47.5154V54.8903Z" fill="white"/>
</svg>
