<svg width="60" height="60" viewBox="0 0 60 60" fill="none" xmlns="http://www.w3.org/2000/svg">
<path d="M17.2039 4.80469C17.1805 6.00703 17.1336 7.17773 17.0516 8.32031H37.5945C37.6297 7.16836 37.6414 5.99766 37.618 4.80469H17.2039ZM16.8758 10.4297C15.3641 25.1367 8.99844 34.9102 2.57422 43.0312L16.0906 56.5547C28.0438 41.8477 36.3641 28.6523 37.5008 10.4297H34.0789C33.8211 16.1719 31.5008 23.2969 28.3836 30.1992C25.2312 37.1719 21.2469 43.9102 17.5789 48.668L16.0789 47.168C19.5594 42.5859 23.4266 36.0469 26.4617 29.332C29.4969 22.6055 31.7 15.668 31.9695 10.4297H28.4539C28.1961 16.1719 25.8758 23.2969 22.7586 30.1992C20.2742 35.6953 17.2742 41.0508 14.3094 45.3984L12.7977 43.875C15.5984 39.7031 18.4695 34.5703 20.8367 29.332C23.8719 22.6055 26.075 15.668 26.3445 10.4297H22.8289C22.5711 16.1719 20.2508 23.2969 17.1336 30.1992C15.2703 34.3359 13.1141 38.3789 10.8992 41.9766L9.36406 40.4414C11.4266 37.0195 13.4656 33.2109 15.2117 29.332C18.2469 22.6055 20.45 15.668 20.7195 10.4297H16.8758ZM39.3758 27.8906C39.2586 28.1719 39.1297 28.5 39.0008 28.9102C38.5906 30.2344 38.1805 32.0859 37.8289 33.9492C37.3602 36.4453 37.0203 38.8477 36.8328 40.1953H41.9188C41.7313 38.8477 41.3914 36.4453 40.9227 33.9492C40.5711 32.0859 40.1609 30.2344 39.7508 28.9102C39.6219 28.5 39.493 28.1719 39.3758 27.8906ZM46.8758 27.8906C46.7586 28.1719 46.6297 28.5 46.5008 28.9102C46.0906 30.2344 45.6805 32.0859 45.3289 33.9492C44.8602 36.4453 44.5203 38.8477 44.3328 40.1953H49.4188C49.2313 38.8477 48.8914 36.4453 48.4227 33.9492C48.0711 32.0859 47.6609 30.2344 47.2508 28.9102C47.1219 28.5 46.993 28.1719 46.8758 27.8906ZM54.3758 27.8906C54.2586 28.1719 54.1297 28.5 54.0008 28.9102C53.5906 30.2344 53.1805 32.0859 52.8289 33.9492C52.3602 36.4453 52.0203 38.8477 51.8328 40.1953H56.9188C56.7313 38.8477 56.3914 36.4453 55.9227 33.9492C55.5711 32.0859 55.1609 30.2344 54.7508 28.9102C54.6219 28.5 54.493 28.1719 54.3758 27.8906ZM36.6805 42.3047V57.0703H42.0711V42.3047H36.6805ZM44.1805 42.3047V57.0703H49.5711V42.3047H44.1805ZM51.6805 42.3047V57.0703H57.0711V42.3047H51.6805Z" fill="white"/>
</svg>
