<svg width="60" height="60" viewBox="0 0 60 60" fill="none" xmlns="http://www.w3.org/2000/svg">
<path d="M5.92188 3.26562L3.68359 10.5605L5.36523 11.0762L7.58359 3.77539L5.92188 3.26562ZM9.60039 4.39297L7.38086 11.6949L23.9641 16.7809L26.2141 9.48711L9.60039 4.39297ZM28.2062 10.1668L26.0031 17.3316C27.9367 17.777 30.3391 17.9762 32.6008 17.8941C34.6516 17.8238 36.5852 17.4957 37.9094 17.0621C37.0539 15.9605 35.6242 14.6012 33.9836 13.3941C32.1555 12.0582 30.0578 10.8863 28.2062 10.1668ZM9.18203 18.5152C10.0914 20.9645 11.6652 23.8824 13.5461 26.4605C16.1242 29.9879 19.3234 32.9059 21.7492 33.5738L23.6242 34.1012L18.1398 37.3473C22.4172 37.8277 29.9289 37.734 33.55 36.8434C31.757 33.609 30.5734 29.4137 30.1164 26.3199L27.468 30.7262L27.0344 30.7027C23.2375 30.4449 20.3195 28.1363 18.3273 25.3473C16.8156 23.2262 15.7961 20.8004 15.2102 18.5973C13.0305 19.8043 11.1789 19.4879 9.18203 18.5152ZM44.9992 22.3238C40.3937 22.3238 36.1281 23.8004 32.6594 26.3082C32.9289 28.148 33.1398 29.6949 33.5148 31.1832C33.5734 31.1832 33.6203 31.1715 33.6789 31.1715H33.8898C34.9445 31.1598 35.9758 31.4293 36.8898 31.9566C39.6789 33.5738 40.6398 37.1715 39.0344 39.9605C37.4172 42.7496 33.8195 43.7105 31.0305 42.1051C30.0344 41.5309 29.2727 40.6871 28.7687 39.7262C27.2805 39.8434 25.7336 39.8902 24.2102 39.8668C24.0227 41.0152 23.9172 42.1988 23.9172 43.4059C23.9172 49.0191 26.1086 54.1168 29.6828 57.8902H39.4211C39.257 57.3512 39.1633 56.777 39.1633 56.1793C39.1633 52.9566 41.8 50.3199 45.0227 50.3199C48.2453 50.3199 50.882 52.9566 50.882 56.1793C50.882 56.777 50.7883 57.3512 50.6242 57.8902H57.8898V55.3473C56.3547 55.8512 54.632 55.734 53.132 54.8668C50.343 53.2496 49.382 49.652 50.9875 46.8629C51.9836 45.1285 53.8 44.027 55.7922 43.9332H56.0031C56.6477 43.9215 57.2805 44.027 57.8898 44.2262V42.5621C55.3234 43.3941 52.4172 42.3512 51.0109 39.9254C49.4055 37.1363 50.3664 33.5387 53.1555 31.9215C54.0109 31.4293 54.9719 31.1715 55.9562 31.148H56.1555C56.7531 31.1598 57.3391 31.2535 57.8898 31.4293V26.7184C54.3273 23.9645 49.8508 22.3238 44.9992 22.3238ZM44.9992 24.773C48.2219 24.773 50.8586 27.4098 50.8586 30.6324C50.8586 33.8551 48.2219 36.4918 44.9992 36.4918C41.7766 36.4918 39.1398 33.8551 39.1398 30.6324C39.1398 27.4098 41.7766 24.773 44.9992 24.773ZM44.9992 26.8824C42.9133 26.8824 41.2492 28.5465 41.2492 30.6324C41.2492 32.7184 42.9133 34.3824 44.9992 34.3824C47.0852 34.3824 48.7492 32.7184 48.7492 30.6324C48.7492 28.5465 47.0852 26.8824 44.9992 26.8824ZM44.9992 28.7574C46.0305 28.7574 46.8742 29.6012 46.8742 30.6324C46.8742 31.6637 46.0305 32.5074 44.9992 32.5074C43.968 32.5074 43.1242 31.6637 43.1242 30.6324C43.1242 29.6012 43.968 28.7574 44.9992 28.7574ZM56.0031 33.2574C55.3703 33.2691 54.7492 33.4332 54.2102 33.7496C52.4055 34.7926 51.7961 37.066 52.8391 38.8707C53.8703 40.652 56.0969 41.273 57.8898 40.277V37.523C57.7609 37.9684 57.468 38.3785 57.0227 38.6246C56.1203 39.1402 54.9836 38.8238 54.468 37.9332C53.9523 37.0426 54.257 35.8941 55.1477 35.3785C55.4172 35.2145 55.7219 35.1324 56.0383 35.1207C56.7297 35.0973 57.3742 35.4605 57.7141 36.0582C57.7961 36.1988 57.843 36.3395 57.8898 36.4801V33.7145C57.3273 33.4098 56.6711 33.2457 56.0031 33.2574ZM44.9992 41.5309C46.0305 41.5309 46.8742 42.3746 46.8742 43.4059C46.8742 44.4371 46.0305 45.2809 44.9992 45.2809C43.968 45.2809 43.1242 44.4371 43.1242 43.4059C43.1242 42.3746 43.968 41.5309 44.9992 41.5309ZM33.7961 43.9332H33.9953C36.0695 43.9566 37.9797 45.0699 39.0109 46.8629C40.6164 49.652 39.6555 53.2496 36.8664 54.8668C34.0773 56.4723 30.4797 55.5113 28.8625 52.7223C27.257 49.9332 28.218 46.3355 31.007 44.7184C31.8508 44.2262 32.8117 43.9566 33.7961 43.9332ZM33.843 46.0426C33.2219 46.0543 32.6008 46.2301 32.0617 46.5465C30.257 47.5895 29.6477 49.8629 30.6906 51.6676C31.7336 53.4723 34.007 54.0816 35.8117 53.0387C37.6164 51.9957 38.2258 49.7223 37.1828 47.9176C36.4914 46.7223 35.2141 46.0074 33.843 46.0426ZM55.8859 46.0426C54.6086 46.1012 53.4484 46.8043 52.8156 47.9176C51.7727 49.7223 52.382 51.9957 54.1867 53.0387C55.382 53.7301 56.7766 53.6949 57.8898 53.0738V50.2027C57.843 50.3902 57.7727 50.566 57.6789 50.7301C57.1633 51.6207 56.0148 51.9254 55.1242 51.4098C54.2336 50.8941 53.9172 49.7574 54.4328 48.8551C54.7492 48.3043 55.3352 47.9527 55.968 47.9176H56.1086C56.425 47.9293 56.7297 48.0113 56.9992 48.1637C57.468 48.4332 57.7844 48.8785 57.8898 49.3707V46.523C57.3625 46.2184 56.7531 46.0543 56.1555 46.0426H55.8859ZM33.8898 47.9176C34.5695 47.9059 35.2141 48.2574 35.5539 48.8551C36.0695 49.7457 35.7648 50.8941 34.8742 51.4098C33.9836 51.9371 32.8234 51.6324 32.3078 50.7301C31.7922 49.8277 32.0969 48.6793 32.9992 48.1637C33.2688 48.0113 33.5734 47.9293 33.8898 47.9176ZM45.0227 52.4293C42.9367 52.4293 41.2727 54.0934 41.2727 56.1793C41.2727 56.8004 41.425 57.3746 41.6828 57.8902H44.2609C43.6047 57.5973 43.1477 56.941 43.1477 56.1793C43.1477 55.148 43.9914 54.3043 45.0227 54.3043C46.0539 54.3043 46.8977 55.148 46.8977 56.1793C46.8977 56.941 46.4406 57.5973 45.7844 57.8902H48.3625C48.6203 57.3746 48.7727 56.8004 48.7727 56.1793C48.7727 54.0934 47.1086 52.4293 45.0227 52.4293Z" fill="white"/>
</svg>
