<svg width="60" height="60" viewBox="0 0 60 60" fill="none" xmlns="http://www.w3.org/2000/svg">
<path d="M14.9536 13.291L13.5547 17.8503L14.6057 18.1726L15.9922 13.6096L14.9536 13.291ZM17.2527 13.9956L15.8655 18.5593L26.23 21.738L27.6362 17.1794L17.2527 13.9956ZM28.8813 17.6042L27.5044 22.0823C28.7129 22.3606 30.2144 22.4851 31.6279 22.4338C32.9097 22.3899 34.1182 22.1848 34.9458 21.9138C34.4111 21.2253 33.5176 20.3757 32.4922 19.6213C31.3496 18.7864 30.0386 18.054 28.8813 17.6042ZM16.9912 22.822C17.5596 24.3528 18.5432 26.1765 19.7187 27.7878C21.3301 29.9924 23.3296 31.8162 24.8457 32.2336L26.0176 32.5632L22.5898 34.592C25.2632 34.8923 29.958 34.8337 32.2212 34.2771C31.1006 32.2556 30.3608 29.6335 30.0752 27.7L28.4199 30.4539L28.1489 30.4392C25.7759 30.2781 23.9521 28.8352 22.707 27.092C21.7622 25.7664 21.125 24.2502 20.7588 22.8733C19.3965 23.6277 18.2393 23.4299 16.9912 22.822ZM39.377 25.2024C36.4985 25.2024 33.8325 26.1252 31.6646 27.6926C31.833 28.8425 31.9648 29.8093 32.1992 30.7395C32.2358 30.7395 32.2651 30.7322 32.3018 30.7322H32.4336C33.0928 30.7249 33.7373 30.8933 34.3086 31.2229C36.0518 32.2336 36.6523 34.4822 35.6489 36.2253C34.6382 37.9685 32.3896 38.5691 30.6465 37.5657C30.0239 37.2068 29.5479 36.6794 29.2329 36.0789C28.3027 36.1521 27.3359 36.1814 26.3838 36.1667C26.2666 36.8845 26.2007 37.6243 26.2007 38.3787C26.2007 41.887 27.5703 45.073 29.8042 47.4314H35.8906C35.7881 47.0945 35.7295 46.7356 35.7295 46.3621C35.7295 44.3479 37.3774 42.7 39.3916 42.7C41.4058 42.7 43.0537 44.3479 43.0537 46.3621C43.0537 46.7356 42.9951 47.0945 42.8926 47.4314H47.4336V45.842C46.4741 46.157 45.3975 46.0837 44.46 45.5417C42.7168 44.531 42.1162 42.2825 43.1196 40.5393C43.7422 39.4553 44.8774 38.7668 46.1226 38.7083H46.2544C46.6572 38.7009 47.0527 38.7668 47.4336 38.8914V37.8513C45.8296 38.3713 44.0132 37.7195 43.1343 36.2034C42.1309 34.4602 42.7314 32.2117 44.4746 31.2009C45.0093 30.8933 45.6099 30.7322 46.2251 30.7175H46.3496C46.7231 30.7249 47.0894 30.7834 47.4336 30.8933V27.949C45.207 26.2278 42.4092 25.2024 39.377 25.2024ZM39.377 26.7332C41.3911 26.7332 43.0391 28.3811 43.0391 30.3953C43.0391 32.4094 41.3911 34.0574 39.377 34.0574C37.3628 34.0574 35.7148 32.4094 35.7148 30.3953C35.7148 28.3811 37.3628 26.7332 39.377 26.7332ZM39.377 28.0515C38.0732 28.0515 37.0332 29.0916 37.0332 30.3953C37.0332 31.699 38.0732 32.739 39.377 32.739C40.6807 32.739 41.7207 31.699 41.7207 30.3953C41.7207 29.0916 40.6807 28.0515 39.377 28.0515ZM39.377 29.2234C40.0215 29.2234 40.5488 29.7507 40.5488 30.3953C40.5488 31.0398 40.0215 31.5671 39.377 31.5671C38.7324 31.5671 38.2051 31.0398 38.2051 30.3953C38.2051 29.7507 38.7324 29.2234 39.377 29.2234ZM46.2544 32.0359C45.8589 32.0432 45.4707 32.1458 45.1338 32.3435C44.0059 32.9954 43.625 34.4163 44.2769 35.5442C44.9214 36.6575 46.313 37.0457 47.4336 36.4231V34.7019C47.353 34.9802 47.1699 35.2366 46.8916 35.3904C46.3276 35.7126 45.6172 35.5149 45.2949 34.9583C44.9727 34.4016 45.1631 33.6838 45.7197 33.3616C45.8882 33.259 46.0786 33.2078 46.2764 33.2004C46.7085 33.1858 47.1113 33.4128 47.3237 33.7864C47.375 33.8743 47.4043 33.9622 47.4336 34.05V32.3215C47.082 32.1311 46.6719 32.0286 46.2544 32.0359ZM39.377 37.2068C40.0215 37.2068 40.5488 37.7341 40.5488 38.3787C40.5488 39.0232 40.0215 39.5505 39.377 39.5505C38.7324 39.5505 38.2051 39.0232 38.2051 38.3787C38.2051 37.7341 38.7324 37.2068 39.377 37.2068ZM32.375 38.7083H32.4995C33.7959 38.7229 34.9897 39.4187 35.6343 40.5393C36.6377 42.2825 36.0371 44.531 34.2939 45.5417C32.5508 46.5452 30.3022 45.9446 29.2915 44.2014C28.2881 42.4583 28.8887 40.2097 30.6318 39.199C31.1592 38.8914 31.7598 38.7229 32.375 38.7083ZM32.4043 40.0266C32.0161 40.0339 31.6279 40.1438 31.291 40.3416C30.1631 40.9934 29.7822 42.4143 30.4341 43.5422C31.0859 44.6702 32.5068 45.051 33.6348 44.3992C34.7627 43.7473 35.1436 42.3264 34.4917 41.1985C34.0596 40.4514 33.2612 40.0046 32.4043 40.0266ZM46.1812 40.0266C45.3828 40.0632 44.6577 40.5027 44.2622 41.1985C43.6104 42.3264 43.9912 43.7473 45.1191 44.3992C45.8662 44.8313 46.7378 44.8093 47.4336 44.4211V42.6267C47.4043 42.7439 47.3604 42.8538 47.3018 42.9563C46.9795 43.5129 46.2617 43.7034 45.7051 43.3811C45.1484 43.0588 44.9507 42.3484 45.2729 41.7844C45.4707 41.4402 45.8369 41.2205 46.2324 41.1985H46.3203C46.5181 41.2058 46.7085 41.2571 46.877 41.3523C47.1699 41.5208 47.3677 41.7991 47.4336 42.1067V40.3269C47.104 40.1365 46.7231 40.0339 46.3496 40.0266H46.1812ZM32.4336 41.1985C32.8584 41.1912 33.2612 41.4109 33.4736 41.7844C33.7959 42.3411 33.6055 43.0588 33.0488 43.3811C32.4922 43.7107 31.7671 43.5203 31.4448 42.9563C31.1226 42.3923 31.313 41.6746 31.877 41.3523C32.0454 41.2571 32.2358 41.2058 32.4336 41.1985ZM39.3916 44.0183C38.0879 44.0183 37.0479 45.0583 37.0479 46.3621C37.0479 46.7502 37.1431 47.1091 37.3042 47.4314H38.9155C38.5054 47.2483 38.2197 46.8381 38.2197 46.3621C38.2197 45.7175 38.7471 45.1902 39.3916 45.1902C40.0361 45.1902 40.5635 45.7175 40.5635 46.3621C40.5635 46.8381 40.2778 47.2483 39.8677 47.4314H41.479C41.6401 47.1091 41.7354 46.7502 41.7354 46.3621C41.7354 45.0583 40.6953 44.0183 39.3916 44.0183Z" fill="white"/>
<path d="M21.4258 1.26642L32.6256 12.4663V5.09137C44.4255 6.26635 53.8254 15.6662 55.0003 27.4661H60.0003C58.3503 7.54134 38.7256 -3.98351 21.4258 1.26642Z" fill="white"/>
<path d="M27.3746 54.8903C15.5748 53.7153 6.17492 44.3155 4.99993 32.5156H0C1.64998 52.4404 21.2747 63.9652 38.5745 58.7153L27.3746 47.5154V54.8903Z" fill="white"/>
</svg>
