<svg width="36" height="36" viewBox="0 0 36 36" fill="none" xmlns="http://www.w3.org/2000/svg">
<path d="M28.4677 16.3913C28.7355 16.4018 28.9085 16.1585 29.1666 16.2323C29.5638 16.3455 29.5659 16.8511 29.4478 17.0374C29.3537 17.166 29.2219 17.2621 29.0708 17.3125C28.9196 17.3629 28.7565 17.365 28.6041 17.3187C28.0416 17.1633 28.0134 16.4869 28.0416 16.3083C28.1747 16.3702 28.321 16.3987 28.4677 16.3913ZM13.8131 15.7198V19.7423H17.6993V15.7198H13.8131ZM1.25391 15.7198V19.7423H4.93688L6.17789 15.7198H1.25602H1.25391ZM8.36039 19.7423H10.4227V15.7198H9.60141L8.36039 19.7423ZM21.087 15.7198V19.7423H24.0802L23.1457 15.7198H21.0926H21.087ZM7.24523 24.5834C6.5334 24.5834 5.83756 24.7945 5.2457 25.19C4.65385 25.5855 4.19256 26.1476 3.92016 26.8053C3.64775 27.463 3.57648 28.1866 3.71534 28.8848C3.85419 29.5829 4.19695 30.2242 4.70027 30.7276C5.20364 31.2309 5.84495 31.5737 6.54312 31.7126C7.24128 31.8514 7.96494 31.7801 8.62259 31.5077C9.28025 31.2353 9.84236 30.774 10.2379 30.1822C10.6334 29.5903 10.8445 28.8945 10.8445 28.1827C10.8445 26.1948 9.23304 24.5834 7.24523 24.5834ZM24.6954 24.5834C23.9836 24.5834 23.2877 24.7945 22.6959 25.19C22.104 25.5855 21.6427 26.1476 21.3703 26.8053C21.0979 27.463 21.0266 28.1866 21.1655 28.8848C21.3043 29.5829 21.6471 30.2242 22.1504 30.7276C22.6538 31.2309 23.2951 31.5737 23.9933 31.7126C24.6914 31.8514 25.4151 31.7801 26.0727 31.5077C26.7304 31.2353 27.2925 30.774 27.688 30.1822C28.0835 29.5903 28.2946 28.8945 28.2947 28.1827C28.2947 26.1948 26.6832 24.5834 24.6954 24.5834ZM6.37898 6.45398H25.5623V4.21875H6.37898V6.45398ZM10.7566 25.0228C11.3287 25.657 11.7175 26.4347 11.8816 27.2728H20.0604C20.2245 26.4347 20.6134 25.657 21.1854 25.0228H10.7566ZM29.8416 25.0228H28.2047C28.7767 25.657 29.1656 26.4347 29.3297 27.2728H29.8373V25.0228H29.8416ZM2.10398 25.0228V27.2728H2.61164C2.77576 26.4347 3.16463 25.657 3.73664 25.0228H2.10187H2.10398ZM10.9366 7.57898H9.86789L4.74633 24.1727C5.13015 23.9322 5.54672 23.7484 5.98313 23.6271L10.9366 7.57898ZM23.4607 7.57898H22.4123L26.1551 23.6897C26.5744 23.8258 26.9725 24.0201 27.3377 24.267L23.4607 7.57898ZM11.5477 7.5941V20.5186H12.6874V7.5941H11.5477ZM18.8236 7.5941V20.5186H19.9676V7.5941H18.8236ZM34.0891 18.1329L34.2298 21.9298L32.9508 22.2335L31.6233 21.6359L31.0945 19.7374L29.8155 19.7311C29.8155 19.7311 31.6437 19.0315 31.7013 17.1577C31.7351 16.001 31.008 14.4443 29.3234 14.4C28.1984 14.3705 26.7485 15.551 27.2435 16.9095C27.3736 17.2652 27.5951 17.9684 28.4634 18.1463C29.232 18.3038 30.2508 17.9051 30.3513 16.8771C30.4216 16.1494 29.812 14.9449 28.4093 15.5412C28.6743 15.3465 28.9945 15.2413 29.3234 15.2409C29.8064 15.2452 30.4266 15.5074 30.7507 16.361C31.0137 17.0543 30.8787 18.109 29.8458 18.7685C29.4548 19.008 29.008 19.1409 28.5497 19.1541C28.0915 19.1673 27.6378 19.0603 27.2337 18.8438L26.148 14.168C27.1493 12.4102 30.8491 10.9955 33.3839 14.0667C33.7847 14.5519 34.7437 16.2422 34.7437 16.2422L34.0891 18.1329ZM33.6448 17.7237C33.7854 17.659 33.7784 17.3602 33.6363 17.055C33.4943 16.7498 32.8446 16.4145 32.7068 16.4791C32.569 16.5438 32.5732 16.8427 32.7159 17.1478C32.8587 17.453 33.5041 17.7884 33.642 17.7237H33.6448ZM33.7573 21.195C33.7573 20.9637 33.4057 20.4919 33.3136 20.4919C33.2215 20.4919 33.1512 20.6796 33.1512 20.9137C33.1512 21.1479 33.5027 21.6169 33.5948 21.6169C33.687 21.6169 33.7573 21.4291 33.7573 21.195Z" fill="white"/>
</svg>
