<svg width="60" height="60" viewBox="0 0 60 60" fill="none" xmlns="http://www.w3.org/2000/svg">
<g clip-path="url(#clip0_4478_6645)">
<path d="M15.054 14.9531L14.4704 16.1353L15.3051 16.5473H15.2749V28.6761L15.3465 28.5347L15.9292 27.3887L16.5196 28.5308C16.5446 28.5792 16.5684 28.6273 16.5933 28.6756V17.1832L32.4317 25.0012C32.4199 25.0959 32.4138 25.1912 32.4136 25.2866C32.4136 26.5484 33.4223 27.5571 34.6841 27.5571C35.3109 27.5571 35.875 27.3081 36.2844 26.903L42.3838 29.9137L40.4186 32.2672L44.5357 41.7242H46.4028V33.521L43.8392 30.4509L44.3509 29.4144L36.9097 25.7413C36.939 25.5946 36.9546 25.4426 36.9546 25.2866C36.9546 24.0248 35.9458 23.0159 34.6841 23.0159C33.9953 23.0159 33.3824 23.3169 32.9673 23.7952L15.0541 14.9532L15.054 14.9531ZM31.958 27.6133L29.5374 31.69H27.6528V33.0084H28.7544L20.9428 46.1637L13.5911 46.1557L13.5897 47.474L22.564 47.4839L22.8845 47.4842L46.4021 47.5103L46.4036 46.1919L45.043 46.1905L37.1003 27.9343C36.4615 28.518 35.6126 28.8752 34.6841 28.8752C34.4589 28.8752 34.2388 28.8532 34.0249 28.8132V31.69H32.2634L33.9767 28.8045C33.1764 28.6429 32.4708 28.2127 31.9582 27.6133H31.958ZM35.3433 29.7705L36.1784 31.69H35.3433V29.7705ZM15.9329 30.2958C15.1584 31.8255 14.3383 33.3606 13.2461 34.7198C14.2532 36.1026 15.1784 36.6913 15.9515 36.697C16.7255 36.7029 17.6324 36.136 18.6241 34.7298C17.4638 33.3184 16.6795 31.7893 15.9329 30.2958ZM31.4805 33.0084H34.0249V46.1782L23.6668 46.1667L31.4805 33.0084ZM35.3433 33.0084H36.7519L39.3716 39.0296V41.7242H40.5439L42.4858 46.1875L35.3433 46.1798V33.0084Z" fill="white"/>
<path d="M21.4258 1.26681L32.6256 12.4701V5.09292C44.4255 6.26827 53.8254 15.671 55.0003 27.4745H60.0003C58.3503 7.54364 38.7256 -3.98473 21.4258 1.26681Z" fill="white"/>
<path d="M27.3746 54.9069C15.5748 53.7316 6.17492 44.3288 4.99993 32.5254H0C1.64998 52.4562 21.2747 63.9846 38.5745 58.733L27.3746 47.5298V54.9069Z" fill="white"/>
</g>
<defs>
<clipPath id="clip0_4478_6645">
<rect width="60.0003" height="59.9998" fill="white"/>
</clipPath>
</defs>
</svg>
