<svg width="60" height="60" viewBox="0 0 60 60" fill="none" xmlns="http://www.w3.org/2000/svg">
<path d="M6.09188 5.91602L5.15812 7.80742L6.49359 8.46672H6.44531V27.8727L6.5598 27.6466L7.49227 25.8129L8.4368 27.6404C8.47688 27.7177 8.51496 27.7947 8.55469 27.872V9.48414L33.8962 21.993C33.8772 22.1444 33.8675 22.2969 33.8672 22.4495C33.8672 24.4684 35.4812 26.0823 37.5 26.0823C38.5029 26.0823 39.4055 25.6839 40.0606 25.0359L49.8196 29.853L46.6752 33.6186L53.2627 48.7497H56.25V35.6247L52.1482 30.7124L52.9669 29.054L41.061 23.177C41.1079 22.9423 41.1328 22.6991 41.1328 22.4495C41.1328 20.4307 39.5188 18.8165 37.5 18.8165C36.398 18.8165 35.4173 19.2981 34.7531 20.0634L6.09199 5.91613L6.09188 5.91602ZM33.1383 26.1723L29.2652 32.695H26.25V34.8044H28.0125L15.514 55.853L3.75129 55.8401L3.74895 57.9495L18.1079 57.9652L18.6207 57.9658L56.2488 58.0075L56.2512 55.8981L54.0743 55.8958L41.366 26.6859C40.3439 27.6198 38.9857 28.1914 37.5 28.1914C37.1398 28.1914 36.7875 28.1562 36.4453 28.0921V32.695H33.627L36.3682 28.0783C35.0877 27.8197 33.9588 27.1314 33.1385 26.1723H33.1383ZM38.5547 29.6239L39.8909 32.695H38.5547V29.6239ZM7.49813 30.4643C6.25898 32.9118 4.94672 35.368 3.19922 37.5427C4.81055 39.7552 6.29086 40.697 7.52789 40.7063C8.76633 40.7157 10.2173 39.8086 11.8041 37.5586C9.94758 35.3004 8.69273 32.8539 7.49813 30.4643ZM32.3742 34.8044H36.4453V55.8762L19.8724 55.8578L32.3742 34.8044ZM38.5547 34.8044H40.8084L45 44.4384V48.7497H46.8757L49.9828 55.8911L38.5547 55.8787V34.8044Z" fill="white"/>
</svg>
