<svg width="16" height="16" viewBox="0 0 16 16" fill="none" xmlns="http://www.w3.org/2000/svg">
<g clip-path="url(#clip0_5903_471)">
<path d="M5 0C4.73853 0 4.5 0.2451 4.5 0.5V1.5H5V2.5H3C0.725333 2.5 0.499867 4.2712 0.5 5V14C0.500067 14.3913 0 15 0 15V16H16V15C16 15 15.4999 14.3913 15.5 14V5C15.5001 4.2712 15.2747 2.5 13 2.5H11V1.5H11.5V0.5C11.5 0.2451 11.2615 0 11 0H5ZM7.401 1.5C7.43583 1.49977 7.46873 1.5 7.5 1.5H8.5C9 1.5 10 1.5 10 2.5H6C6 1.5625 6.8792 1.50367 7.401 1.5ZM3.5 4.5H12.5C13.1403 4.5 13.5 4.866 13.5 5.5V13.5C13.5 13.7822 13.2422 14 13 14H3C2.75777 14 2.5 13.7822 2.5 13.5V5.5C2.5 4.866 2.85967 4.5 3.5 4.5ZM4.5 5.5C4.5 5.5 3.5 6.22807 3.5 7.5V11H5.5V7.5C5.5 6.22807 4.5 5.5 4.5 5.5ZM8 5.5C8 5.5 7 6.22807 7 7.5V11H9V7.5C9 6.22807 8 5.5 8 5.5ZM11.5 5.5C11.5 5.5 10.5 6.22807 10.5 7.5V11H12.5V7.5C12.5 6.22807 11.5 5.5 11.5 5.5ZM3.5 11.5V12.5H5.5V11.5H3.5ZM7 11.5V12.5H9V11.5H7ZM10.5 11.5V12.5H12.5V11.5H10.5Z" fill="white"/>
</g>
<defs>
<clipPath id="clip0_5903_471">
<rect width="16" height="16" fill="white"/>
</clipPath>
</defs>
</svg>
