<svg width="36" height="36" viewBox="0 0 36 36" fill="none" xmlns="http://www.w3.org/2000/svg">
<path stroke="rgba(0,0,0,0.6)" stroke-width="0.8" stroke-linejoin="round" d="M8.34042 3.00019V8.48335L11.3582 12.2242V13.2749L17.7878 16.1429L19.5614 13.9134L23.8443 14.174V12.2243L26.862 8.48328V3H23.6829V5.58638H21.7478V3.00019H18.534V5.58644H16.6337V3.00019H13.4199V5.58644H11.5194V3.00019H8.34042ZM11.3582 14.6048V27.289H9.41628L8 33.4434H27.2024L25.7863 27.289H23.8442V25.6092L21.3277 24.0449L19.7867 25.9486L21.6345 27.6213L20.8193 28.5217L18.1194 26.0778L20.2882 23.3988L14.3317 19.696L16.4952 16.8961L11.3583 14.6048H11.3582ZM21.4326 15.8468L22.6701 18.121L24.6851 17.7698L23.5616 15.8468L21.4326 15.8468ZM25.7664 16.5024L26.8903 21.346L30.5007 21.4804L29.6271 17.713L25.7664 16.5024ZM16.962 18.2784L16.115 19.3745L18.5452 20.8852L19.7259 19.5457L16.962 18.2784V18.2784ZM21.7139 19.127L19.5913 21.5353L23.8443 24.1791V20.9416L21.7139 19.127V19.127ZM27.2481 22.4899L26.9127 24.4126L29.0893 25.5927L29.0832 23.5612L27.2482 22.4899L27.2481 22.4899ZM32.4415 22.9402L30.942 24.4478L31.5072 26.5994L33.1786 25.4243L32.4416 22.9402H32.4415ZM28.1619 27.424L27.4489 29.8272L29.0659 30.9639L29.6127 28.8826L28.1619 27.424Z" fill="white"/>
</svg>
