<svg preserveAspectRatio="none" overflow="visible" style="display: block;" viewBox="-8 -2 26 118" fill="none" xmlns="http://www.w3.org/2000/svg">
  <!-- 红色宽条弧线（背景条） -->
  <path d="M9.77484 112.036C-0.00344391 75.5432 0.0770466 37.1089 10.0081 0.657152"
    stroke="#FF6565" stroke-opacity="0.85" stroke-width="15"/>

  <!-- 图标1：顶部，x=1 y=6 -->
  <svg x="1" y="6" width="12" height="12" viewBox="0 0 10 10" fill="none" xmlns="http://www.w3.org/2000/svg">
    <g clip-path="url(#c1)">
      <path d="M5.67011 1.4899C5.20864 1.37215 4.6917 1.60216 4.22938 2.1316C4.22769 2.13353 4.22573 2.13488 4.22406 2.13681L1.35352 5.11636L1.34889 5.12073C0.835101 5.60917 0.620965 6.13715 0.74956 6.59619C0.878023 7.05492 1.33511 7.38834 2.02381 7.52434L6.04285 8.5264C6.71496 8.72984 7.27525 8.65003 7.60414 8.30524C7.93312 7.96037 7.99169 7.39388 7.7675 6.72157L7.76559 6.71505L6.64835 2.75337C6.64789 2.75132 6.64732 2.74949 6.64683 2.74745C6.48143 2.05784 6.13185 1.60771 5.67009 1.48989L5.67011 1.4899ZM5.59979 1.77582C5.80512 1.8291 5.97464 1.98087 6.10847 2.19803C6.24154 2.41393 6.34664 2.6995 6.4322 3.05724C6.43269 3.05933 6.43324 3.06111 6.43374 3.06318L7.41866 6.55459C7.41896 6.55552 7.41916 6.55635 7.41947 6.5573L7.42053 6.56111C7.53977 6.91732 7.60103 7.21901 7.59983 7.47486C7.59859 7.73237 7.53042 7.95109 7.38124 8.10327C7.23205 8.25545 7.01598 8.32675 6.76357 8.33424C6.51302 8.34166 6.21902 8.28955 5.87621 8.18546L2.33143 7.30164C1.95 7.2268 1.65449 7.12771 1.43501 6.99561C1.21407 6.86259 1.0662 6.68707 1.02089 6.47867C0.975579 6.27031 1.03332 6.05024 1.15856 5.82963C1.28298 5.61049 1.47611 5.38371 1.73047 5.14242L1.73524 5.13753L4.26525 2.51244C4.26706 2.51036 4.26889 2.50884 4.2707 2.50674C4.51196 2.23005 4.7365 2.02767 4.95411 1.90118C5.17335 1.77376 5.39447 1.72252 5.59979 1.77585L5.59979 1.77582ZM6.0876 2.89734L4.80821 6.18602L4.17382 6.02785L4.57986 2.59893C4.54796 2.63341 4.51658 2.66837 4.48576 2.70381L4.48352 2.70676L4.4808 2.7096L1.94069 5.34477L1.93857 5.34725L1.93595 5.34961C1.69225 5.58025 1.51575 5.79197 1.41245 5.97393C1.30913 6.1559 1.28095 6.3006 1.30614 6.41644C1.33134 6.53227 1.41019 6.64013 1.58585 6.74584C1.76147 6.85154 2.02987 6.94587 2.39438 7.01688L2.39829 7.01734L5.95068 7.90305L5.95436 7.90445C6.28132 8.0043 6.55136 8.04879 6.75523 8.04278C6.95909 8.03672 7.08911 7.98388 7.17258 7.89873C7.25605 7.81358 7.30681 7.68187 7.3078 7.4735C7.30878 7.26508 7.25613 6.9876 7.14184 6.64757L7.14064 6.64424L7.13957 6.64046L6.15071 3.13653L6.1499 3.13379L6.14964 3.13071C6.12999 3.04806 6.10924 2.97046 6.08754 2.89731L6.0876 2.89734ZM4.0744 6.35985L4.74007 6.52582L4.57411 7.19147L3.90844 7.0255L4.0744 6.35986L4.0744 6.35985Z" fill="white"/>
    </g>
    <defs><clipPath id="c1"><rect width="8" height="8" fill="white" transform="translate(1.93538) rotate(14)"/></clipPath></defs>
  </svg>

  <!-- 图标2：上中，x=-3 y=39 -->
  <svg x="-3" y="39" width="12" height="12" viewBox="0 0 10 10" fill="none" xmlns="http://www.w3.org/2000/svg">
    <g clip-path="url(#c2)">
      <path d="M5.67011 1.4899C5.20864 1.37215 4.6917 1.60216 4.22938 2.1316C4.22769 2.13353 4.22573 2.13488 4.22406 2.13681L1.35352 5.11636L1.34889 5.12073C0.835101 5.60917 0.620965 6.13715 0.74956 6.59619C0.878023 7.05492 1.33511 7.38834 2.02381 7.52434L6.04285 8.5264C6.71496 8.72984 7.27525 8.65003 7.60414 8.30524C7.93312 7.96037 7.99169 7.39388 7.7675 6.72157L7.76559 6.71505L6.64835 2.75337C6.64789 2.75132 6.64732 2.74949 6.64683 2.74745C6.48143 2.05784 6.13185 1.60771 5.67009 1.48989L5.67011 1.4899ZM5.59979 1.77582C5.80512 1.8291 5.97464 1.98087 6.10847 2.19803C6.24154 2.41393 6.34664 2.6995 6.4322 3.05724C6.43269 3.05933 6.43324 3.06111 6.43374 3.06318L7.41866 6.55459C7.41896 6.55552 7.41916 6.55635 7.41947 6.5573L7.42053 6.56111C7.53977 6.91732 7.60103 7.21901 7.59983 7.47486C7.59859 7.73237 7.53042 7.95109 7.38124 8.10327C7.23205 8.25545 7.01598 8.32675 6.76357 8.33424C6.51302 8.34166 6.21902 8.28955 5.87621 8.18546L2.33143 7.30164C1.95 7.2268 1.65449 7.12771 1.43501 6.99561C1.21407 6.86259 1.0662 6.68707 1.02089 6.47867C0.975579 6.27031 1.03332 6.05024 1.15856 5.82963C1.28298 5.61049 1.47611 5.38371 1.73047 5.14242L1.73524 5.13753L4.26525 2.51244C4.26706 2.51036 4.26889 2.50884 4.2707 2.50674C4.51196 2.23005 4.7365 2.02767 4.95411 1.90118C5.17335 1.77376 5.39447 1.72252 5.59979 1.77585L5.59979 1.77582ZM6.0876 2.89734L4.80821 6.18602L4.17382 6.02785L4.57986 2.59893C4.54796 2.63341 4.51658 2.66837 4.48576 2.70381L4.48352 2.70676L4.4808 2.7096L1.94069 5.34477L1.93857 5.34725L1.93595 5.34961C1.69225 5.58025 1.51575 5.79197 1.41245 5.97393C1.30913 6.1559 1.28095 6.3006 1.30614 6.41644C1.33134 6.53227 1.41019 6.64013 1.58585 6.74584C1.76147 6.85154 2.02987 6.94587 2.39438 7.01688L2.39829 7.01734L5.95068 7.90305L5.95436 7.90445C6.28132 8.0043 6.55136 8.04879 6.75523 8.04278C6.95909 8.03672 7.08911 7.98388 7.17258 7.89873C7.25605 7.81358 7.30681 7.68187 7.3078 7.4735C7.30878 7.26508 7.25613 6.9876 7.14184 6.64757L7.14064 6.64424L7.13957 6.64046L6.15071 3.13653L6.1499 3.13379L6.14964 3.13071C6.12999 3.04806 6.10924 2.97046 6.08754 2.89731L6.0876 2.89734ZM4.0744 6.35985L4.74007 6.52582L4.57411 7.19147L3.90844 7.0255L4.0744 6.35986L4.0744 6.35985Z" fill="white"/>
    </g>
    <defs><clipPath id="c2"><rect width="8" height="8" fill="white" transform="translate(1.93538) rotate(14)"/></clipPath></defs>
  </svg>

  <!-- 图标3：下中，x=-3 y=67 -->
  <svg x="-3" y="67" width="12" height="12" viewBox="0 0 10 10" fill="none" xmlns="http://www.w3.org/2000/svg">
    <g clip-path="url(#c3)">
      <path d="M5.67011 1.4899C5.20864 1.37215 4.6917 1.60216 4.22938 2.1316C4.22769 2.13353 4.22573 2.13488 4.22406 2.13681L1.35352 5.11636L1.34889 5.12073C0.835101 5.60917 0.620965 6.13715 0.74956 6.59619C0.878023 7.05492 1.33511 7.38834 2.02381 7.52434L6.04285 8.5264C6.71496 8.72984 7.27525 8.65003 7.60414 8.30524C7.93312 7.96037 7.99169 7.39388 7.7675 6.72157L7.76559 6.71505L6.64835 2.75337C6.64789 2.75132 6.64732 2.74949 6.64683 2.74745C6.48143 2.05784 6.13185 1.60771 5.67009 1.48989L5.67011 1.4899ZM5.59979 1.77582C5.80512 1.8291 5.97464 1.98087 6.10847 2.19803C6.24154 2.41393 6.34664 2.6995 6.4322 3.05724C6.43269 3.05933 6.43324 3.06111 6.43374 3.06318L7.41866 6.55459C7.41896 6.55552 7.41916 6.55635 7.41947 6.5573L7.42053 6.56111C7.53977 6.91732 7.60103 7.21901 7.59983 7.47486C7.59859 7.73237 7.53042 7.95109 7.38124 8.10327C7.23205 8.25545 7.01598 8.32675 6.76357 8.33424C6.51302 8.34166 6.21902 8.28955 5.87621 8.18546L2.33143 7.30164C1.95 7.2268 1.65449 7.12771 1.43501 6.99561C1.21407 6.86259 1.0662 6.68707 1.02089 6.47867C0.975579 6.27031 1.03332 6.05024 1.15856 5.82963C1.28298 5.61049 1.47611 5.38371 1.73047 5.14242L1.73524 5.13753L4.26525 2.51244C4.26706 2.51036 4.26889 2.50884 4.2707 2.50674C4.51196 2.23005 4.7365 2.02767 4.95411 1.90118C5.17335 1.77376 5.39447 1.72252 5.59979 1.77585L5.59979 1.77582ZM6.0876 2.89734L4.80821 6.18602L4.17382 6.02785L4.57986 2.59893C4.54796 2.63341 4.51658 2.66837 4.48576 2.70381L4.48352 2.70676L4.4808 2.7096L1.94069 5.34477L1.93857 5.34725L1.93595 5.34961C1.69225 5.58025 1.51575 5.79197 1.41245 5.97393C1.30913 6.1559 1.28095 6.3006 1.30614 6.41644C1.33134 6.53227 1.41019 6.64013 1.58585 6.74584C1.76147 6.85154 2.02987 6.94587 2.39438 7.01688L2.39829 7.01734L5.95068 7.90305L5.95436 7.90445C6.28132 8.0043 6.55136 8.04879 6.75523 8.04278C6.95909 8.03672 7.08911 7.98388 7.17258 7.89873C7.25605 7.81358 7.30681 7.68187 7.3078 7.4735C7.30878 7.26508 7.25613 6.9876 7.14184 6.64757L7.14064 6.64424L7.13957 6.64046L6.15071 3.13653L6.1499 3.13379L6.14964 3.13071C6.12999 3.04806 6.10924 2.97046 6.08754 2.89731L6.0876 2.89734ZM4.0744 6.35985L4.74007 6.52582L4.57411 7.19147L3.90844 7.0255L4.0744 6.35986L4.0744 6.35985Z" fill="white"/>
    </g>
    <defs><clipPath id="c3"><rect width="8" height="8" fill="white" transform="translate(1.93538) rotate(14)"/></clipPath></defs>
  </svg>

  <!-- 图标4：底部，x=1 y=95 -->
  <svg x="1" y="95" width="12" height="12" viewBox="0 0 10 10" fill="none" xmlns="http://www.w3.org/2000/svg">
    <g clip-path="url(#c4)">
      <path d="M5.67011 1.4899C5.20864 1.37215 4.6917 1.60216 4.22938 2.1316C4.22769 2.13353 4.22573 2.13488 4.22406 2.13681L1.35352 5.11636L1.34889 5.12073C0.835101 5.60917 0.620965 6.13715 0.74956 6.59619C0.878023 7.05492 1.33511 7.38834 2.02381 7.52434L6.04285 8.5264C6.71496 8.72984 7.27525 8.65003 7.60414 8.30524C7.93312 7.96037 7.99169 7.39388 7.7675 6.72157L7.76559 6.71505L6.64835 2.75337C6.64789 2.75132 6.64732 2.74949 6.64683 2.74745C6.48143 2.05784 6.13185 1.60771 5.67009 1.48989L5.67011 1.4899ZM5.59979 1.77582C5.80512 1.8291 5.97464 1.98087 6.10847 2.19803C6.24154 2.41393 6.34664 2.6995 6.4322 3.05724C6.43269 3.05933 6.43324 3.06111 6.43374 3.06318L7.41866 6.55459C7.41896 6.55552 7.41916 6.55635 7.41947 6.5573L7.42053 6.56111C7.53977 6.91732 7.60103 7.21901 7.59983 7.47486C7.59859 7.73237 7.53042 7.95109 7.38124 8.10327C7.23205 8.25545 7.01598 8.32675 6.76357 8.33424C6.51302 8.34166 6.21902 8.28955 5.87621 8.18546L2.33143 7.30164C1.95 7.2268 1.65449 7.12771 1.43501 6.99561C1.21407 6.86259 1.0662 6.68707 1.02089 6.47867C0.975579 6.27031 1.03332 6.05024 1.15856 5.82963C1.28298 5.61049 1.47611 5.38371 1.73047 5.14242L1.73524 5.13753L4.26525 2.51244C4.26706 2.51036 4.26889 2.50884 4.2707 2.50674C4.51196 2.23005 4.7365 2.02767 4.95411 1.90118C5.17335 1.77376 5.39447 1.72252 5.59979 1.77585L5.59979 1.77582ZM6.0876 2.89734L4.80821 6.18602L4.17382 6.02785L4.57986 2.59893C4.54796 2.63341 4.51658 2.66837 4.48576 2.70381L4.48352 2.70676L4.4808 2.7096L1.94069 5.34477L1.93857 5.34725L1.93595 5.34961C1.69225 5.58025 1.51575 5.79197 1.41245 5.97393C1.30913 6.1559 1.28095 6.3006 1.30614 6.41644C1.33134 6.53227 1.41019 6.64013 1.58585 6.74584C1.76147 6.85154 2.02987 6.94587 2.39438 7.01688L2.39829 7.01734L5.95068 7.90305L5.95436 7.90445C6.28132 8.0043 6.55136 8.04879 6.75523 8.04278C6.95909 8.03672 7.08911 7.98388 7.17258 7.89873C7.25605 7.81358 7.30681 7.68187 7.3078 7.4735C7.30878 7.26508 7.25613 6.9876 7.14184 6.64757L7.14064 6.64424L7.13957 6.64046L6.15071 3.13653L6.1499 3.13379L6.14964 3.13071C6.12999 3.04806 6.10924 2.97046 6.08754 2.89731L6.0876 2.89734ZM4.0744 6.35985L4.74007 6.52582L4.57411 7.19147L3.90844 7.0255L4.0744 6.35986L4.0744 6.35985Z" fill="white"/>
    </g>
    <defs><clipPath id="c4"><rect width="8" height="8" fill="white" transform="translate(1.93538) rotate(14)"/></clipPath></defs>
  </svg>
</svg>
